<svg width="30" height="31" viewBox="0 0 30 31" fill="none" xmlns="http://www.w3.org/2000/svg">
<path d="M27 7.04V6C26.9983 4.61997 25.88 3.50165 24.5 3.5H16V3C15.9983 1.61997 14.88 0.501653 13.5 0.5H2.5C1.11997 0.501653 0.00165306 1.61997 0 3V20C0 20.2761 0.223858 20.5 0.5 20.5C0.776142 20.5 1 20.2761 1 20V3C1 2.17157 1.67157 1.5 2.5 1.5H13.5C14.3284 1.5 15 2.17157 15 3V4C15 4.27614 15.2239 4.5 15.5 4.5H24.5C25.3284 4.5 26 5.17157 26 6V7H12C11.7239 7 11.5 7.22386 11.5 7.5C11.5 7.77614 11.7239 8 12 8H26.5C27.88 8.00165 28.9983 9.11997 29 10.5V25C28.9983 26.38 27.88 27.4984 26.5 27.5H13C12.7239 27.5 12.5 27.7239 12.5 28C12.5 28.2761 12.7239 28.5 13 28.5H26.5C28.4321 28.4978 29.9978 26.9321 30 25V10.5C29.998 8.76171 28.7205 7.28833 27 7.04Z" fill="#3F4443"/>
<path d="M9.49987 8C9.77601 8 9.99987 7.77614 9.99987 7.5C9.99987 7.22386 9.77601 7 9.49987 7H7.49988C7.22374 7 6.99988 7.22386 6.99988 7.5C6.99988 7.77614 7.22374 8 7.49988 8H9.49987Z" fill="#3F4443"/>
<path d="M3.41493 23.086C2.62308 22.3314 1.37827 22.3314 0.586427 23.086C-0.194337 23.867 -0.194337 25.133 0.586427 25.914L4.58643 29.914C4.96072 30.2901 5.4698 30.5011 6.00043 30.5C6.05343 30.5 6.10693 30.5 6.16143 30.4935C6.74632 30.4467 7.281 30.1449 7.62343 29.6685L16.6234 17.1685C17.0503 16.589 17.1329 15.8248 16.8398 15.1675C16.5466 14.5102 15.9228 14.0611 15.2064 13.9916C14.49 13.922 13.7915 14.2428 13.3774 14.8315L12.7464 15.708C12.6377 15.8527 12.6158 16.045 12.689 16.2105C12.7623 16.3761 12.9193 16.4891 13.0996 16.506C13.2799 16.5229 13.4552 16.441 13.5579 16.292L14.1889 15.416C14.3944 15.1178 14.7451 14.9541 15.1056 14.9879C15.4661 15.0216 15.7802 15.2477 15.9267 15.5788C16.0733 15.9099 16.0294 16.2944 15.8119 16.584L6.81193 29.084C6.64119 29.3222 6.37412 29.4731 6.08193 29.4965C5.78946 29.5195 5.50151 29.4138 5.29343 29.207L1.29343 25.207C0.903046 24.8165 0.903046 24.1835 1.29343 23.793C1.68901 23.4151 2.31184 23.4151 2.70743 23.793L5.46043 26.5455C5.56406 26.6491 5.70794 26.702 5.85402 26.6903C6.0001 26.6785 6.13367 26.6033 6.21943 26.4845L12.1194 18.292C12.2281 18.1472 12.2501 17.9549 12.1768 17.7894C12.1036 17.6238 11.9465 17.5108 11.7663 17.4939C11.586 17.477 11.4107 17.5589 11.3079 17.708L5.75043 25.423L3.41493 23.086Z" fill="#3F4443"/>
</svg>
