<svg width="24" height="28" viewBox="0 0 24 28" fill="none" xmlns="http://www.w3.org/2000/svg">
<path d="M18.2256 5.60547C16.4553 4.27737 14.3109 3.5 12 3.5C5.92487 3.5 1 8.87258 1 15.5C1 22.1274 5.92487 27.5 12 27.5C18.0751 27.5 23 22.1274 23 15.5C23 13.7132 22.642 12.0176 22 10.4939" stroke="#3F4443" stroke-linecap="round" stroke-linejoin="round"/>
<path d="M18.9709 6.50723C19.2393 6.44236 19.4043 6.17218 19.3394 5.90376L18.2824 1.52968C18.2175 1.26127 17.9473 1.09626 17.6789 1.16113C17.4105 1.22599 17.2455 1.49617 17.3103 1.76459L18.25 5.65266L14.3619 6.59229C14.0935 6.65715 13.9285 6.92733 13.9933 7.19575C14.0582 7.46416 14.3284 7.62917 14.5968 7.5643L18.9709 6.50723ZM17.7394 5.92671L18.5928 6.44793L19.114 5.5945L18.2606 5.07329L17.7394 5.92671Z" fill="#3F4443"/>
</svg>
