<svg width="35" height="36" viewBox="0 0 35 36" fill="none" xmlns="http://www.w3.org/2000/svg">
<g clip-path="url(#clip0)">
<path d="M31.5342 8.44413C31.4392 8.34749 31.3072 8.29226 31.1719 8.29226H25.7031H24.8493V4.65974C24.8493 4.65884 24.8492 4.65794 24.8492 4.65704C24.8477 2.08887 22.7783 0 20.2349 0C19.212 0 18.2662 0.338331 17.5003 0.909374C16.7344 0.338331 15.7886 0 14.7656 0C12.2213 0 10.1513 2.09039 10.1513 4.65981C10.1513 4.66029 10.1514 4.6607 10.1514 4.66119V8.29233H3.82812C3.69346 8.29233 3.56084 8.34756 3.46582 8.4442C3.37012 8.54016 3.31543 8.67408 3.31543 8.81008V25.8529C3.31543 26.138 3.54512 26.3707 3.82812 26.3707C4.11113 26.3707 4.34082 26.138 4.34082 25.8529V9.32776H10.1514V12.2616C10.1514 12.5474 10.3811 12.7793 10.6641 12.7793C10.9471 12.7793 11.1768 12.5474 11.1768 12.2616V9.32776H18.3545V12.2616C18.3545 12.5474 18.5842 12.7793 18.8672 12.7793C19.1495 12.7793 19.3799 12.5474 19.3799 12.2616V9.32776H25.1904V16.8786V18.9496V34.3095H4.34082V27.9239C4.34082 27.6381 4.11113 27.4062 3.82812 27.4062C3.54512 27.4062 3.31543 27.6381 3.31543 27.9239V34.8272C3.31543 34.9632 3.37012 35.0971 3.46582 35.1931C3.56084 35.2897 3.69346 35.345 3.82812 35.345H25.7031H31.1719C31.3031 35.345 31.4343 35.2944 31.5344 35.1933C31.621 35.1058 31.67 34.9948 31.6816 34.8807C31.6818 34.8798 31.6819 34.8789 31.682 34.8781C31.6836 34.8617 31.6844 34.8452 31.6845 34.8287C31.6845 34.8283 31.6846 34.8278 31.6846 34.8272V8.81001C31.6846 8.67402 31.6299 8.54009 31.5342 8.44413ZM15.6208 8.29226H11.1768V4.65974C11.1768 4.65946 11.1767 4.65918 11.1767 4.65884C11.1772 2.66081 12.787 1.0355 14.7656 1.0355C15.4916 1.0355 16.1675 1.25495 16.7329 1.6307C16.0404 2.44591 15.6206 3.50405 15.6206 4.65981C15.6206 4.66119 15.6208 4.6625 15.6208 4.66381V8.29226ZM18.3546 4.65974V8.29226H16.6462V4.65974C16.6462 4.65884 16.6461 4.65801 16.6461 4.65711C16.6467 3.76521 16.9686 2.9482 17.5003 2.31641C18.0322 2.94861 18.3543 3.76624 18.3546 4.65884C18.3546 4.65912 18.3546 4.65946 18.3546 4.65974ZM23.8239 8.29233H19.3799V4.66119C19.3799 4.6607 19.38 4.66029 19.38 4.65981C19.38 3.50405 18.9602 2.44598 18.2677 1.6307C18.8331 1.25495 19.5089 1.0355 20.2349 1.0355C22.2139 1.0355 23.8239 2.66137 23.8239 4.65981C23.8239 4.66029 23.8239 4.6607 23.8239 4.66119V8.29233ZM26.2158 18.9496V16.8786V9.32776H27.9247V31.8512L26.2158 33.577V18.9496ZM26.9406 34.3095L28.4374 32.7979L29.9342 34.3095H26.9406ZM30.6592 33.5772L28.9501 31.8511V9.32776H30.6592V33.5772Z" fill="#3F4443"/>
<path d="M13.2824 27.463C13.2586 27.4953 13.2349 27.5277 13.2107 27.5597C13.2193 27.5648 13.2261 27.5694 13.2316 27.5732C13.241 27.5796 13.2468 27.5837 13.2526 27.5835C13.916 27.566 14.5617 27.4505 15.179 27.2032C15.4415 27.0981 15.693 26.9705 15.9142 26.7884C16.3802 26.4051 16.7294 25.9238 17.0472 25.4177C17.0539 25.4069 17.0541 25.3921 17.0544 25.3743C17.0544 25.3711 17.0545 25.368 17.0545 25.3647L17.0547 25.359L17.055 25.3539L17.0551 25.3512L17.0554 25.3467L17.0558 25.3432C17.0285 25.3416 17.0023 25.3395 16.9767 25.3373C16.9222 25.3328 16.8709 25.3286 16.8195 25.3301C16.4308 25.3416 16.0453 25.3839 15.6713 25.4965C15.1529 25.6526 14.6658 25.8697 14.2931 26.2825C14.0351 26.5685 13.7832 26.8606 13.5318 27.1522L13.4441 27.254C13.3869 27.3205 13.3348 27.3915 13.2824 27.463Z" fill="#3F4443"/>
<path d="M11.4243 30.634C11.4393 30.5993 11.4568 30.5655 11.4764 30.5332C11.7889 30.1043 12.1329 29.6992 12.5053 29.3215C12.8585 28.9644 13.2844 28.7404 13.7565 28.5887C14.1973 28.446 14.6505 28.3944 15.1103 28.3854C15.1607 28.3876 15.2107 28.3926 15.2604 28.4005C15.2557 28.4159 15.252 28.43 15.2485 28.443C15.2472 28.4484 15.2459 28.4535 15.2445 28.4586C15.2395 28.4768 15.2343 28.4929 15.2258 28.5068C14.9605 28.9413 14.6554 29.3437 14.2868 29.6971C13.9829 29.9887 13.6202 30.1783 13.2305 30.3185C12.6717 30.5197 12.0952 30.6144 11.5051 30.6433C11.4779 30.6419 11.451 30.6388 11.4243 30.634Z" fill="#3F4443"/>
<path d="M14.3024 23.27C14.2945 23.191 14.2865 23.1098 14.2798 23.0253C14.2586 23.0392 14.241 23.0505 14.2262 23.0601C14.2192 23.0646 14.2128 23.0687 14.2069 23.0726C14.1953 23.0802 14.1852 23.0868 14.176 23.0933C14.1711 23.0967 14.1664 23.1002 14.1618 23.1036C13.7919 23.3865 13.4713 23.7288 13.2125 24.1167C12.9738 24.4715 12.7924 24.8521 12.7247 25.2806C12.6344 25.8532 12.636 26.43 12.6411 27.007C12.6442 27.0393 12.6503 27.0713 12.6592 27.1023C12.6681 27.101 12.6757 27.1005 12.682 27.1001C12.685 27.0999 12.6877 27.0998 12.6902 27.0995C12.6938 27.0992 12.697 27.0987 12.6997 27.098C12.7005 27.0977 12.7013 27.0974 12.7021 27.0971C12.7027 27.0969 12.7033 27.0966 12.7037 27.0963C12.7043 27.096 12.7049 27.0956 12.7055 27.0951C12.7186 27.0854 12.7316 27.0753 12.7445 27.0652L12.7524 27.0589L12.7621 27.0513C12.7667 27.0475 12.7714 27.0438 12.776 27.0399L12.7811 27.0357L12.7882 27.0298C12.7938 27.025 12.7996 27.0201 12.8053 27.0151C12.8084 27.0124 12.8117 27.0095 12.8148 27.0067C13.1939 26.6708 13.5268 26.2854 13.8043 25.8609C14.0396 25.4962 14.2358 25.1124 14.2865 24.6757C14.3199 24.3715 14.3359 24.0656 14.3346 23.7596C14.3349 23.5998 14.3191 23.4401 14.3024 23.27Z" fill="#3F4443"/>
<path d="M16.5737 19.9792C16.5761 19.9826 16.5782 19.9856 16.5799 19.9882C16.5847 19.995 16.5872 19.9996 16.5878 20.0042C16.6592 20.5799 16.6848 21.1553 16.5691 21.7294C16.5018 22.0639 16.3544 22.3651 16.1803 22.6535C15.8856 23.1419 15.514 23.5657 15.0876 23.9418C15.0784 23.9499 15.0689 23.9577 15.0588 23.9655C15.0471 23.9745 15.0346 23.9837 15.0211 23.9936H15.0209C15.0077 24.0033 14.9933 24.0138 14.9776 24.0259C14.9734 24.0143 14.9687 24.0038 14.9642 23.994C14.9556 23.9748 14.9482 23.9583 14.9485 23.9424C14.9501 23.8808 14.9516 23.8193 14.9529 23.7577C14.9543 23.6989 14.9556 23.64 14.957 23.581V23.5801C14.9647 23.23 14.9725 22.8799 14.9899 22.5301C15.0276 21.7771 15.359 21.1484 15.8491 20.5985C15.9744 20.4577 16.1135 20.3288 16.2523 20.2001L16.2532 20.1994C16.2996 20.1563 16.3461 20.1132 16.3921 20.0696C16.423 20.0401 16.4588 20.0157 16.498 19.9892C16.516 19.977 16.5347 19.9643 16.5538 19.9504C16.5563 19.9544 16.5587 19.958 16.5611 19.9614C16.563 19.9641 16.5648 19.9667 16.5664 19.9691C16.5691 19.9729 16.5715 19.9762 16.5737 19.9792Z" fill="#3F4443"/>
<path d="M10.8765 30.0273C10.9144 30.1482 10.953 30.2716 10.9923 30.3987C11.0358 30.3402 11.0512 30.3232 11.0616 30.3035C11.3096 29.8724 11.5137 29.4209 11.6405 28.9384C11.7398 28.5602 11.808 28.1757 11.7498 27.7829C11.6748 27.277 11.5085 26.7989 11.2894 26.3388C11.279 26.3172 11.2622 26.2984 11.2414 26.2754C11.2371 26.2706 11.2325 26.2655 11.2278 26.2601C11.2227 26.2544 11.2177 26.2485 11.2123 26.2422C11.2101 26.2395 11.2079 26.2368 11.2056 26.2341C11.1878 26.2597 11.1705 26.2831 11.154 26.3053C11.1204 26.3509 11.0903 26.3916 11.0662 26.4358C11.0465 26.4722 11.0266 26.5084 11.0066 26.5448C10.9268 26.6895 10.847 26.8345 10.7828 26.9859C10.554 27.5257 10.4224 28.085 10.5095 28.6762C10.535 28.8513 10.5724 29.0244 10.6217 29.1942C10.7016 29.4682 10.7868 29.7407 10.8765 30.0273Z" fill="#3F4443"/>
<path d="M21.4922 19.6644C21.118 20.2509 20.7452 20.7924 20.1341 21.1035C19.5652 21.3927 18.5684 21.6047 18.2605 21.5109C18.2661 21.4995 18.271 21.488 18.2758 21.4767C18.2817 21.4629 18.2875 21.4493 18.2942 21.4366C18.2998 21.4258 18.3062 21.4157 18.3139 21.4066C18.3763 21.3327 18.4384 21.2585 18.5006 21.1844L18.5012 21.1836L18.5019 21.1828C18.7038 20.9419 18.9057 20.7008 19.115 20.4662C19.4304 20.1124 19.8413 19.9113 20.2882 19.7858C20.6334 19.6888 20.9854 19.6222 21.3476 19.646C21.3637 19.6465 21.3797 19.6483 21.4 19.6511C21.4083 19.6523 21.4175 19.6537 21.4276 19.6552L21.4284 19.6553L21.429 19.6554C21.4465 19.6579 21.467 19.661 21.4922 19.6644Z" fill="#3F4443"/>
<path d="M16.5515 23.4769C16.2583 23.7944 15.9837 24.1288 15.7288 24.4781C15.7751 24.4778 15.8166 24.4786 15.8549 24.4793C15.9274 24.4808 15.9884 24.482 16.0484 24.4747C16.4501 24.4229 16.851 24.3625 17.2334 24.2199C17.52 24.1128 17.7955 23.9896 18.0357 23.7879C18.4018 23.48 18.6818 23.1054 18.9372 22.7071C18.9485 22.6891 18.956 22.6684 18.9657 22.6424C18.9707 22.6288 18.9762 22.6137 18.9832 22.5968C18.9694 22.5953 18.956 22.5938 18.9431 22.5923C18.932 22.5909 18.9213 22.5896 18.9107 22.5884C18.8622 22.5824 18.8197 22.577 18.7771 22.578C18.4244 22.5851 18.0743 22.6406 17.7366 22.7433C17.2775 22.8823 16.879 23.1183 16.5515 23.4769Z" fill="#3F4443"/>
<path d="M19.4828 17.8242C19.4919 18.5247 19.4784 19.1833 19.1274 19.7782C18.8113 20.3138 18.3767 20.7357 17.8569 21.1054C17.8538 21.0951 17.8505 21.0858 17.8472 21.0773C17.8453 21.0717 17.8432 21.0665 17.8413 21.0616C17.8327 21.0392 17.8263 21.0227 17.8282 21.0072C17.8377 20.9278 17.8472 20.8484 17.8567 20.7689C17.8955 20.4453 17.9342 20.1216 17.9795 19.7987C18.0445 19.3401 18.2672 18.9554 18.5601 18.6073C18.8214 18.2956 19.1334 18.0308 19.4828 17.8242Z" fill="#3F4443"/>
<path d="M20.6981 17.6608C20.4573 18.0827 20.3063 18.54 20.1941 19.0211C20.8608 18.7416 21.4691 18.3884 21.8359 17.7324C22.0567 17.3372 22.213 16.7463 22.1541 16.5786C21.804 16.6973 21.478 16.8783 21.1916 17.1128C21.0005 17.2708 20.8224 17.4433 20.6981 17.6608Z" fill="#3F4443"/>
</g>
<defs>
<clipPath id="clip0">
<rect width="35" height="35.345" fill="white"/>
</clipPath>
</defs>
</svg>
