<svg width="35" height="36" viewBox="0 0 35 36" fill="none" xmlns="http://www.w3.org/2000/svg">
<g clip-path="url(#clip0)">
<path d="M34.2748 19.816L31.1033 13.5739C30.8178 13.0119 30.2719 12.663 29.6788 12.663C28.6093 12.663 6.38879 12.663 5.32129 12.663C4.72807 12.663 4.18229 13.0119 3.89675 13.5739L0.725284 19.816C0.557599 20.1461 0.573322 20.5466 0.766369 20.8612C0.945333 21.1529 1.24926 21.3269 1.5793 21.3269H4.16157V33.8836C4.16157 34.7748 4.83293 35.4999 5.65823 35.4999C5.99682 35.4999 29.0035 35.4999 29.3421 35.4999C30.1673 35.4999 30.8387 34.7748 30.8387 33.8836V28.4931C30.8387 28.2099 30.6093 27.9804 30.326 27.9804C30.0427 27.9804 29.8132 28.2099 29.8132 28.4931V33.8836C29.8132 34.2039 29.5975 34.4745 29.342 34.4745H18.0128V15.3168L20.687 20.5801C20.921 21.0408 21.3704 21.327 21.8597 21.327H29.8131V26.1005C29.8131 26.3837 30.0426 26.6133 30.3258 26.6133C30.6091 26.6133 30.8386 26.3838 30.8386 26.1005V21.327H33.4209C33.7509 21.327 34.0548 21.1529 34.2338 20.8613C34.4267 20.5466 34.4425 20.1461 34.2748 19.816ZM1.6346 20.3016C1.6346 20.2951 1.6359 20.2878 1.63952 20.2806L4.81099 14.0385C4.92064 13.8226 5.11621 13.6885 5.32136 13.6885H16.6644C16.2725 14.4599 13.9279 19.0745 13.3989 20.1156V20.1157C13.3406 20.2303 13.2416 20.3016 13.1405 20.3016C12.8512 20.3016 1.94687 20.3016 1.6346 20.3016ZM16.9873 34.4745H5.65816C5.40277 34.4745 5.18703 34.204 5.18703 33.8836V21.327H13.1404C13.6315 21.327 14.0799 21.0392 14.3131 20.5801L16.9873 15.3167V34.4745ZM21.8597 20.3015C21.7586 20.3015 21.6595 20.2303 21.6013 20.1156L18.3358 13.6884H29.6788C29.8839 13.6884 30.0794 13.8225 30.1892 14.0384L33.3607 20.2805C33.3644 20.2878 33.3656 20.295 33.3656 20.3015C33.0528 20.3015 22.149 20.3015 21.8597 20.3015Z" fill="#3F4443"/>
<path d="M17.4999 2.09421C16.357 0.260605 13.7925 -0.0490634 12.2483 1.49736C11.6104 2.13618 11.2595 2.98418 11.2604 3.88522C11.263 6.4889 13.0063 9.00937 16.0433 10.8003C16.125 10.8486 16.2147 10.8715 16.3032 10.8715C16.4787 10.8715 16.6497 10.7813 16.7453 10.6192C16.8891 10.3753 16.8081 10.0609 16.5642 9.91705C15.2789 9.15901 12.2891 7.05382 12.2858 3.8842C12.2844 2.47203 13.5284 1.36187 14.949 1.55314C16.2187 1.72425 16.6584 2.72188 16.7561 2.82374C17.2089 3.29617 17.8269 3.29781 18.253 2.80959C18.3668 2.678 18.9165 1.52662 20.3631 1.52512C21.6581 1.52512 22.7129 2.5786 22.7144 3.87353C22.7174 6.89133 20.0329 8.95428 18.4325 9.91541C18.1897 10.0612 18.1111 10.3762 18.2569 10.619C18.4028 10.8618 18.7177 10.9402 18.9605 10.7945C22.0451 8.94204 23.7426 6.4837 23.7399 3.87244C23.7362 0.571776 19.3984 -0.833214 17.4999 2.09421Z" fill="#3F4443"/>
</g>
<defs>
<clipPath id="clip0">
<rect width="35" height="35" fill="white" transform="translate(0 0.5)"/>
</clipPath>
</defs>
</svg>
