<svg width="172" height="71" viewBox="0 0 172 71" fill="none" xmlns="http://www.w3.org/2000/svg">
<path d="M150.673 66.8007L149.073 70.8546H149.899L150.982 67.9649L152.03 70.8546H152.888L151.321 66.8007H150.673ZM158.642 70.1284V66.7649H157.878V70.8546H160.588V70.1234L158.642 70.1284ZM143.036 69.1926H143.889V70.0695C143.794 70.1107 143.685 70.1479 143.56 70.1772C143.225 70.2439 142.833 70.2517 142.517 70.1157C142.352 70.0461 142.207 69.9461 142.079 69.8158C141.956 69.6881 141.861 69.5448 141.793 69.3687C141.723 69.1973 141.684 69.0104 141.684 68.808C141.684 68.6139 141.72 68.4319 141.782 68.2596C141.842 68.0854 141.934 67.9355 142.05 67.8122C142.164 67.684 142.306 67.5852 142.47 67.5107C142.774 67.3698 143.191 67.3651 143.537 67.4852C143.695 67.5343 143.857 67.6331 143.998 67.771L144.087 67.8533L144.616 67.2875L144.54 67.2052C144.373 67.0377 144.169 66.9028 143.928 66.8107C143.692 66.7157 143.395 66.6696 143.017 66.6696C142.707 66.6696 142.418 66.7258 142.161 66.8373C141.9 66.9389 141.674 67.0916 141.49 67.2875C141.295 67.4813 141.157 67.7057 141.045 67.9649C140.943 68.2242 140.887 68.5102 140.887 68.808C140.887 69.0976 140.936 69.3687 141.035 69.6292C141.134 69.8816 141.272 70.1157 141.463 70.3145C141.651 70.5081 141.885 70.6678 142.151 70.7811C142.414 70.8978 142.724 70.9534 143.073 70.9534C143.191 70.9534 143.32 70.9466 143.458 70.9313C143.6 70.9127 143.734 70.8931 143.862 70.8587C143.988 70.8301 144.116 70.7931 144.251 70.7431C144.373 70.6972 144.492 70.6442 144.594 70.5826L144.652 70.5463V68.4642H143.036V69.1926ZM135.298 69.2473C135.298 69.359 135.282 69.4743 135.248 69.5907C135.222 69.7005 135.176 69.8093 135.11 69.9052C135.041 69.9983 134.952 70.0745 134.847 70.1352C134.636 70.2517 134.264 70.2517 134.05 70.1352C133.945 70.0745 133.856 69.9952 133.794 69.9052C133.722 69.8093 133.675 69.7005 133.649 69.5907C133.619 69.4655 133.603 69.354 133.603 69.2473V66.7649H132.839V69.3293C132.839 69.5664 132.879 69.7878 132.961 69.9834C133.044 70.1843 133.158 70.3554 133.303 70.5004C133.444 70.6442 133.619 70.7569 133.816 70.8392C134.011 70.9127 134.225 70.9534 134.449 70.9534C134.676 70.9534 134.887 70.9127 135.084 70.8392C135.278 70.7569 135.452 70.6442 135.594 70.5004C135.742 70.3507 135.854 70.1813 135.933 69.9834C136.019 69.7878 136.062 69.5664 136.062 69.3293V66.7649H135.298V69.2473ZM125.331 67.4983H126.572V70.8546H127.335V67.4983H128.577V66.7649H125.331V67.4983ZM118.635 68.4642H119.202C119.294 68.4642 119.389 68.4516 119.488 68.4416C119.57 68.4289 119.643 68.3987 119.712 68.3624C119.771 68.3301 119.817 68.282 119.85 68.2214C119.893 68.1587 119.91 68.0734 119.91 67.9649C119.91 67.8533 119.893 67.771 119.85 67.7083C119.817 67.6427 119.771 67.5967 119.712 67.5607C119.643 67.5272 119.57 67.5008 119.488 67.4902C119.393 67.4733 119.297 67.4648 119.202 67.4648H118.635V68.4642ZM119.834 69.0642L120.949 70.8546H120.008L119.028 69.1601H118.635V70.8546H117.872V66.7649H119.35C119.607 66.7649 119.83 66.8007 120.005 66.8764C120.183 66.9516 120.324 67.0478 120.426 67.1661C120.528 67.2777 120.604 67.4108 120.644 67.5555C120.687 67.7005 120.706 67.8367 120.706 67.9649C120.706 68.0963 120.68 68.2342 120.634 68.3624C120.584 68.4857 120.512 68.6061 120.419 68.7098C120.331 68.808 120.222 68.8989 120.087 68.9693C120.008 69.0104 119.922 69.0436 119.834 69.0642ZM112.115 68.2596C112.052 68.0854 111.964 67.9355 111.845 67.8122C111.729 67.684 111.588 67.5852 111.43 67.5107C111.265 67.4351 111.081 67.399 110.881 67.399C110.676 67.399 110.499 67.4351 110.334 67.5107C110.169 67.5852 110.031 67.684 109.913 67.8122C109.797 67.9355 109.709 68.0854 109.643 68.2596C109.58 68.4319 109.551 68.6139 109.551 68.808C109.551 69.0036 109.58 69.1926 109.643 69.3619C109.709 69.536 109.797 69.6848 109.913 69.8093C110.031 69.9375 110.169 70.0363 110.334 70.1107C110.499 70.1843 110.676 70.2234 110.881 70.2234C111.081 70.2234 111.269 70.1843 111.427 70.1107C111.588 70.0411 111.729 69.9375 111.845 69.8093C111.96 69.6881 112.052 69.536 112.115 69.3619C112.18 69.1926 112.21 69.0073 112.21 68.808C112.21 68.6139 112.18 68.4289 112.115 68.2596ZM112.849 67.9649C112.958 68.2242 113.007 68.5102 113.007 68.808C113.007 69.1143 112.958 69.3951 112.849 69.6564C112.747 69.9108 112.595 70.1449 112.408 70.334C112.226 70.5249 112 70.6773 111.739 70.7892C111.48 70.8978 111.193 70.9534 110.881 70.9534C110.571 70.9534 110.278 70.8978 110.024 70.7892C109.765 70.6773 109.534 70.5249 109.35 70.334C109.162 70.1449 109.014 69.9108 108.912 69.6564C108.806 69.3951 108.754 69.1143 108.754 68.808C108.754 68.5102 108.806 68.2242 108.912 67.9649C109.014 67.7083 109.162 67.4813 109.35 67.2875C109.534 67.0916 109.765 66.9419 110.024 66.8373C110.542 66.6169 111.219 66.6169 111.739 66.8373C111.993 66.9389 112.226 67.0916 112.408 67.2875C112.599 67.4813 112.75 67.7083 112.849 67.9649ZM102.733 68.5434H103.3C103.392 68.5434 103.488 68.5357 103.583 68.5217C103.665 68.5073 103.741 68.481 103.81 68.4446C103.869 68.4123 103.915 68.3661 103.951 68.3037C103.988 68.238 104.004 68.151 104.004 68.0442C104.004 67.9355 103.988 67.8492 103.951 67.788C103.915 67.7252 103.869 67.6751 103.81 67.6426C103.741 67.6098 103.665 67.5802 103.58 67.5676C103.488 67.5555 103.392 67.542 103.3 67.542H102.733V68.5434ZM104.741 67.639C104.785 67.774 104.801 67.9122 104.801 68.0442C104.801 68.1783 104.785 68.3105 104.741 68.4484C104.702 68.5925 104.627 68.7245 104.525 68.8461C104.416 68.9616 104.284 69.0563 104.106 69.1317C103.929 69.2063 103.711 69.2445 103.448 69.2445H102.733V70.9369H101.97V66.8489H103.448C103.708 66.8489 103.929 66.8861 104.106 66.9605C104.284 67.0339 104.419 67.1258 104.525 67.2446C104.627 67.3599 104.702 67.4928 104.741 67.639ZM171.983 7.7981L161.055 9.37826V11.5181H165.005L151.022 49.8792H146.963V52.162H160.94V49.8792H156.654L171.983 7.7981ZM94.5895 15.5561C92.7796 15.5561 91.3116 17.0255 91.3116 18.8346C91.3116 20.6369 92.7796 22.1092 94.5895 22.1092C96.4035 22.1092 97.8716 20.6369 97.8716 18.8346C97.8716 17.0255 96.4035 15.5561 94.5895 15.5561ZM66.3837 29.399H70.5503L64.0825 47.2108C63.3161 49.3048 63.467 50.8013 64.5332 51.6581C65.5544 52.4645 67.1598 52.8758 69.3234 52.8758C70.4582 52.8758 71.5089 52.6995 72.4339 52.3511C73.3356 52.0075 74.1607 51.5864 74.8732 51.0999C75.5768 50.6134 76.1764 50.0976 76.6528 49.5682C77.1135 49.0551 77.4799 48.6148 77.7328 48.254L78.0366 47.8234H75.9002L75.718 47.8275L75.6434 47.9078C75.3299 48.2376 75.0632 48.4695 74.6919 48.7496C74.1882 49.134 73.6158 49.478 72.9927 49.7587C72.3909 50.0417 71.7226 50.1799 71.011 50.1799C70.1565 50.1799 69.5821 49.9908 69.3058 49.609C69.0235 49.2166 69.3567 48.1504 69.6782 47.2636L76.159 29.399H81.637V27.2064H76.9566L79.9986 18.8776H77.7504L77.6739 19.0217C76.9134 20.4614 76.1177 21.7214 75.3064 22.7593C74.5135 23.7831 73.6179 24.6476 72.6576 25.322C71.6988 25.9923 70.619 26.4926 69.449 26.7981L69.2137 26.8639C68.175 27.1369 67.7691 27.2455 66.3837 27.2064V29.399ZM64.1608 25.7645L53.2889 27.2408L53.2871 29.3963H57.1637L53.0086 40.8575C52.6245 41.9149 52.0325 42.7998 51.2016 43.8911C50.3763 44.9611 49.4553 45.9313 48.4477 46.7652C47.4462 47.6002 46.3702 48.2925 45.2471 48.812C44.1418 49.3252 43.0795 49.5916 42.0914 49.5916C41.045 49.5916 40.3688 49.2722 40.0336 48.6093C39.7081 47.9507 39.6024 47.5346 40.0512 46.3092L47.556 25.7645L36.5154 27.2651V29.4316L40.6059 29.3963L34.63 45.9019C34.3006 46.7976 34.1281 47.6707 34.1184 48.4842C34.1047 49.333 34.3359 50.1026 34.7926 50.7631C35.2572 51.4163 35.9627 51.9419 36.8897 52.3189C37.8012 52.6849 39.0457 52.8758 40.5843 52.8758C41.9191 52.8758 43.2166 52.6095 44.4318 52.0801C45.6275 51.5542 46.7034 50.9404 47.6343 50.2622C48.5654 49.5816 49.3649 48.8858 50.0176 48.2034C50.2216 47.993 50.4018 47.7958 50.5665 47.612L48.9143 52.162H59.2707V49.8792H55.3095L64.1608 25.7645ZM138.55 49.9937C139.586 49.4886 140.469 48.8083 141.176 47.9731C141.885 47.1307 142.5 46.1455 142.99 45.0405C143.487 43.9254 143.971 42.729 144.426 41.4976L146.032 37.0866C146.473 35.8651 146.861 34.6766 147.178 33.542C147.486 32.4536 147.595 31.4833 147.496 30.6522C147.404 29.8573 147.055 29.2348 146.417 28.7442C145.775 28.2576 144.679 28.0081 143.162 28.0081C141.624 28.0081 140.318 28.2716 139.284 28.7775C138.244 29.2826 137.365 29.961 136.661 30.8011C135.95 31.6401 135.338 32.6276 134.844 33.729C134.343 34.8539 133.86 36.044 133.412 37.2757L131.806 41.6864C131.361 42.919 130.973 44.1116 130.657 45.2275C130.35 46.3178 130.242 47.294 130.334 48.1181C130.426 48.9151 130.779 49.5407 131.424 50.0222C132.065 50.5116 133.158 50.7584 134.676 50.7584C136.21 50.7584 137.516 50.5039 138.55 49.9937ZM152.73 34.4425C152.754 36.0558 152.437 37.7507 151.809 39.4804C151.18 41.207 150.262 42.8898 149.077 44.4913C147.895 46.086 146.509 47.526 144.955 48.7663C143.395 50.0123 141.67 51.0167 139.821 51.751C137.961 52.4961 136.035 52.8758 134.106 52.8758C132.161 52.8758 130.492 52.4928 129.156 51.7352C127.812 50.9786 126.796 49.9526 126.128 48.6801C125.466 47.4173 125.12 45.9546 125.104 44.3296C125.087 42.7125 125.396 41.0217 126.026 39.2942C126.657 37.5704 127.576 35.8837 128.761 34.282C129.939 32.6805 131.331 31.2436 132.882 30.0072C134.432 28.761 136.167 27.7587 138.02 27.0164C139.877 26.2734 141.798 25.8976 143.734 25.8976C145.679 25.8976 147.345 26.2775 148.682 27.0331C150.022 27.7907 151.039 28.8208 151.71 30.0895C152.372 31.3592 152.718 32.8217 152.73 34.4425ZM110.39 50.163C111.308 49.7686 112.148 49.111 112.892 48.2081C113.652 47.2863 114.367 46.0907 115.024 44.6487C115.683 43.1892 116.407 41.3911 117.17 39.2942C117.862 37.3872 118.422 35.6839 118.82 34.2292C119.212 32.7989 119.37 31.6019 119.29 30.6766C119.215 29.7967 118.909 29.1261 118.398 28.6834C117.872 28.2422 117.01 28.018 115.841 28.018C114.716 28.018 113.566 28.2745 112.437 28.7843C111.292 29.3005 110.216 29.9699 109.242 30.7804C108.26 31.591 107.391 32.5258 106.647 33.5548C105.904 34.5846 105.341 35.6105 104.981 36.5983L102.569 43.2137C102.187 44.2681 102.013 45.2734 102.059 46.1916C102.098 47.1049 102.326 47.9107 102.721 48.5851C103.106 49.2457 103.668 49.7834 104.399 50.1728C105.123 50.5664 105.986 50.7631 106.957 50.7631C108.309 50.7631 109.465 50.5607 110.39 50.163ZM124.389 34.8633C124.379 36.4355 124.106 37.9911 123.56 39.483C122.921 41.2461 122.003 42.9495 120.838 44.549C119.676 46.1484 118.309 47.5914 116.78 48.8278C115.245 50.0642 113.563 51.0608 111.769 51.7845C109.975 52.5079 108.109 52.8805 106.216 52.8805C105.146 52.8805 104.215 52.6995 103.452 52.3431C102.691 51.9995 102.059 51.5572 101.558 51.0384C101.061 50.5184 100.679 49.9408 100.432 49.3113C100.301 48.9945 100.202 48.6801 100.12 48.3748L92.6972 68.6286H97.2993V70.9127H82.9797L82.9601 68.6286H87.075L101.417 29.4422H97.5032V27.1908L108.333 25.8425L106.424 31.0828C106.766 30.6893 107.144 30.2998 107.549 29.9073C108.293 29.1808 109.139 28.5183 110.051 27.9395C110.966 27.3601 111.96 26.8686 113.007 26.4842C114.067 26.0983 115.162 25.9005 116.259 25.9005C118.096 25.9005 119.633 26.3392 120.821 27.2027C122.003 28.064 122.901 29.1673 123.504 30.4937C124.1 31.8123 124.399 33.2854 124.389 34.8633ZM94.9032 25.8425L84.0399 27.2319L84.0263 29.399H88.0139L80.5571 49.8792H77.9835L77.9758 52.162H90.0836V49.8792H86.1372L94.9032 25.8425ZM28.8715 0.979921L29.7908 1.07871C31.3176 1.30598 32.621 1.63295 33.6147 2.10477C34.5966 2.56871 35.4219 3.08174 36.0766 3.62507C36.7095 4.15462 37.272 4.65977 37.7502 5.12674C38.1716 5.53113 38.6127 5.72689 39.0929 5.72689C39.859 5.72689 40.4491 5.51431 40.896 5.07083C41.3644 4.60689 41.7232 4.0284 41.9661 3.35371L42.0347 3.18447H44.3553L39.5281 16.444L36.6625 16.4489L36.7977 16.0466C37.4112 14.3639 37.7306 13.0463 37.6542 11.5583C37.5759 10.0311 37.1896 8.65962 36.5077 7.47613C35.8313 6.29356 34.8729 5.32537 33.652 4.60689C32.4328 3.88356 30.9491 3.52219 29.2401 3.52219C27.5956 3.52219 26.0237 3.84431 24.5831 4.47871C23.1248 5.11977 21.7647 5.97144 20.5338 7.03068C19.297 8.08204 18.6639 9.08553 17.6351 10.4598C16.5982 11.8411 15.4025 13.6492 14.5639 15.1587C14.5639 15.1587 12.9368 18.3676 12.5028 19.4052C9.91459 25.6736 5.52438 37.6476 7.13066 45.6122C7.24518 46.1946 7.49606 46.6743 7.66655 47.0658C8.1184 48.0851 8.8228 48.9198 9.76777 49.5407C10.7085 50.1601 12.0314 50.4734 13.7013 50.4734C15.4594 50.4734 17.2724 50.0642 19.0894 49.2625C20.9161 48.4481 22.6545 47.3683 24.25 46.0466C25.8475 44.7233 27.2878 43.1922 28.5267 41.5154C29.9319 39.6034 30.7805 38.1028 31.3648 36.4983L31.4293 36.3172L34.1164 36.3123L33.9833 36.6784C33.3872 38.319 32.4014 39.8981 31.3333 41.5154C31.206 41.7208 31.0746 41.9149 30.953 42.0779C30.8197 42.2679 30.6766 42.4728 30.5277 42.6734C29.1028 44.6117 27.4427 46.366 25.6063 47.8892C23.7696 49.4173 21.7627 50.6593 19.6477 51.6033C17.5234 52.5467 15.3987 53.0255 13.3321 53.0255C11.3866 53.0255 8.30952 52.4304 7.10791 51.6395C7.04542 51.6169 4.58654 50.5184 2.72058 47.3292C2.45014 46.9229 2.20912 46.5136 2.00207 46.0958C1.71904 45.5367 1.4759 44.9552 1.26825 44.3416L1.26431 44.3501C-1.93446 36.2467 1.74255 25.6567 3.44773 21.5336C3.62808 21.0508 3.82602 20.6008 4.02002 20.1855C11.8118 0.404314 27.3781 0.979921 28.8715 0.979921Z" fill="#1B1F1F"/>
</svg>
