<svg width="20" height="15" viewBox="0 0 20 15" fill="none" xmlns="http://www.w3.org/2000/svg">
<path fill-rule="evenodd" clip-rule="evenodd" d="M16.8687 0.501805C17.2116 0.181518 17.6745 0.00126181 18.1573 6.59939e-06C18.6401 -0.00124861 19.1041 0.176598 19.4488 0.495098C19.7936 0.813597 19.9915 1.24716 19.9997 1.70205C20.008 2.15693 19.8259 2.5966 19.4928 2.92598L9.71175 14.4466C9.54364 14.6172 9.34075 14.7541 9.11521 14.8491C8.88967 14.9442 8.6461 14.9954 8.39907 14.9997C8.15205 15.004 7.90664 14.9613 7.67751 14.8742C7.44839 14.7871 7.24026 14.6574 7.06557 14.4928L0.584875 8.38384C0.40433 8.22531 0.25952 8.03415 0.159083 7.82175C0.058646 7.60935 0.0046394 7.38006 0.000285983 7.14756C-0.00406744 6.91506 0.0413216 6.68412 0.133744 6.46851C0.226167 6.2529 0.363731 6.05705 0.538229 5.89262C0.712726 5.7282 0.920583 5.59857 1.1494 5.51148C1.37822 5.4244 1.6233 5.38163 1.87004 5.38573C2.11678 5.38983 2.36012 5.44072 2.58553 5.53536C2.81094 5.63 3.01382 5.76645 3.18205 5.93657L8.3127 10.7688L16.8221 0.552598C16.8373 0.534714 16.8537 0.517749 16.8711 0.501805H16.8687Z" fill="#737C7B"/>
</svg>
