<svg width="56" height="63" viewBox="0 0 56 63" fill="none" xmlns="http://www.w3.org/2000/svg">
<path d="M3.50012 15.75H52.5001V55.125C52.5001 57.2136 51.7626 59.2166 50.4499 60.6935C49.1371 62.1703 47.3566 63 45.5001 63H10.5001C8.64361 63 6.86313 62.1703 5.55037 60.6935C4.23762 59.2166 3.50012 57.2136 3.50012 55.125V15.75ZM28.0001 5.90625C25.6795 5.90625 23.4539 6.94336 21.8129 8.78942C20.172 10.6355 19.2501 13.1393 19.2501 15.75H15.7501C15.7501 12.095 17.0407 8.58967 19.3381 6.00518C21.6354 3.4207 24.7512 1.96875 28.0001 1.96875C31.249 1.96875 34.3649 3.4207 36.6622 6.00518C38.9595 8.58967 40.2501 12.095 40.2501 15.75H36.7501C36.7501 13.1393 35.8282 10.6355 34.1873 8.78942C32.5464 6.94336 30.3208 5.90625 28.0001 5.90625Z" fill="#3F4443"/>
<path d="M23.0978 45.0378C23.0608 45.0881 23.0237 45.1387 22.986 45.1886C22.9994 45.1965 23.01 45.2038 23.0186 45.2097C23.0332 45.2197 23.0422 45.2261 23.0513 45.2258C24.086 45.1984 25.093 45.0184 26.0557 44.6327C26.4651 44.4688 26.8573 44.2698 27.2023 43.9857C27.9291 43.388 28.4737 42.6373 28.9694 41.8479C28.9799 41.8311 28.9801 41.8081 28.9806 41.7803C28.9806 41.7753 28.9808 41.7704 28.9808 41.7653L28.981 41.7564L28.9815 41.7484L28.9817 41.7442L28.9822 41.7372L28.9829 41.7318C28.9403 41.7292 28.8993 41.7259 28.8595 41.7227C28.7745 41.7156 28.6944 41.7091 28.6143 41.7114C28.0081 41.7292 27.4068 41.7952 26.8235 41.9709C26.015 42.2144 25.2553 42.553 24.6741 43.1966C24.2717 43.6427 23.8788 44.0984 23.4868 44.5531L23.3499 44.7119C23.2608 44.8156 23.1795 44.9263 23.0978 45.0378Z" fill="#EFEAE6"/>
<path d="M20.1995 49.9874C20.2228 49.9333 20.2502 49.8806 20.2807 49.8302C20.7681 49.1613 21.3046 48.5295 21.8853 47.9404C22.4362 47.3836 23.1004 47.0342 23.8367 46.7975C24.5242 46.5751 25.2311 46.4945 25.9482 46.4805C26.0267 46.484 26.1047 46.4917 26.1823 46.5041C26.1748 46.528 26.1691 46.55 26.1637 46.5704C26.1617 46.5788 26.1596 46.5868 26.1575 46.5947C26.1496 46.6231 26.1415 46.6481 26.1283 46.6699C25.7145 47.3475 25.2387 47.9751 24.6638 48.5263C24.1898 48.981 23.6242 49.2767 23.0164 49.4954C22.1449 49.8092 21.2458 49.9569 20.3254 50.0019C20.2831 49.9998 20.2411 49.9949 20.1995 49.9874Z" fill="#EFEAE6"/>
<path d="M24.6883 38.4989C24.676 38.3757 24.6635 38.249 24.6531 38.1172C24.62 38.139 24.5927 38.1565 24.5695 38.1715C24.5586 38.1785 24.5487 38.1849 24.5394 38.1909C24.5213 38.2029 24.5056 38.2132 24.4912 38.2233C24.4836 38.2286 24.4762 38.234 24.469 38.2394C23.8922 38.6806 23.3921 39.2144 22.9885 39.8195C22.6162 40.3728 22.3333 40.9663 22.2277 41.6346C22.0869 42.5277 22.0895 43.4273 22.0973 44.3271C22.1022 44.3774 22.1117 44.4273 22.1256 44.4758C22.1395 44.4737 22.1513 44.473 22.1612 44.4723C22.1659 44.472 22.17 44.4718 22.174 44.4713C22.1795 44.4709 22.1846 44.4702 22.1888 44.469C22.19 44.4685 22.1913 44.4681 22.1925 44.4676C22.1934 44.4674 22.1944 44.4669 22.1951 44.4664C22.196 44.466 22.1969 44.4652 22.1978 44.4645C22.2182 44.4493 22.2386 44.4336 22.2587 44.4179L22.271 44.4081L22.286 44.3962C22.2932 44.3903 22.3006 44.3845 22.3078 44.3784L22.3157 44.3718L22.3268 44.3627C22.3356 44.3552 22.3446 44.3475 22.3534 44.3397C22.3583 44.3355 22.3634 44.3311 22.3682 44.3266C22.9596 43.8028 23.4787 43.2018 23.9115 42.5396C24.2784 41.9708 24.5845 41.3724 24.6635 40.6912C24.7156 40.2168 24.7406 39.7396 24.7385 39.2624C24.739 39.0133 24.7144 38.7641 24.6883 38.4989Z" fill="#EFEAE6"/>
<path d="M28.2305 33.3672C28.2342 33.3725 28.2374 33.3771 28.2402 33.3812C28.2476 33.3917 28.2516 33.3989 28.2525 33.4061C28.3639 34.304 28.4037 35.2013 28.2233 36.0967C28.1184 36.6184 27.8885 37.0881 27.6169 37.5379C27.1573 38.2996 26.5778 38.9606 25.9128 39.5472C25.8984 39.5598 25.8836 39.572 25.8678 39.5842C25.8496 39.5982 25.8301 39.6125 25.809 39.628H25.8088C25.7882 39.6432 25.7657 39.6596 25.7412 39.6783C25.7347 39.6603 25.7273 39.6439 25.7204 39.6287C25.7069 39.5987 25.6954 39.5729 25.6958 39.5481C25.6984 39.4521 25.7007 39.3561 25.7028 39.2601C25.7048 39.1683 25.7069 39.0765 25.709 38.9845V38.9831C25.721 38.4371 25.7333 37.891 25.7604 37.3455C25.8192 36.1712 26.336 35.1906 27.1003 34.333C27.2958 34.1133 27.5127 33.9124 27.7292 33.7116L27.7306 33.7105C27.8031 33.6433 27.8755 33.576 27.9473 33.5081C27.9955 33.4621 28.0513 33.424 28.1124 33.3827C28.1404 33.3636 28.1696 33.3438 28.1995 33.3223C28.2034 33.3284 28.2071 33.3341 28.2108 33.3393C28.2138 33.3436 28.2166 33.3476 28.2192 33.3513C28.2233 33.3573 28.227 33.3625 28.2305 33.3672Z" fill="#EFEAE6"/>
<path d="M19.3453 49.0408C19.4044 49.2293 19.4646 49.4218 19.5259 49.6201C19.5938 49.5288 19.6178 49.5023 19.6341 49.4717C20.0207 48.7992 20.3391 48.0951 20.5368 47.3425C20.6917 46.7527 20.798 46.153 20.7073 45.5405C20.5903 44.7514 20.331 44.0059 19.9892 43.2882C19.973 43.2545 19.9469 43.2252 19.9145 43.1894C19.9077 43.1819 19.9006 43.1739 19.8931 43.1655C19.8853 43.1566 19.8774 43.1475 19.8691 43.1376C19.8656 43.1334 19.8621 43.1292 19.8587 43.125C19.8309 43.1648 19.8038 43.2013 19.7781 43.236C19.7257 43.3072 19.6787 43.3706 19.6412 43.4395C19.6104 43.4964 19.5794 43.5528 19.5482 43.6095C19.4238 43.8352 19.2992 44.0614 19.1992 44.2974C18.8424 45.1394 18.637 46.0116 18.7729 46.9337C18.8128 47.2067 18.8711 47.4767 18.948 47.7415C19.0726 48.1689 19.2055 48.5938 19.3453 49.0408Z" fill="#EFEAE6"/>
<path d="M35.9018 32.8761C35.3181 33.7908 34.7367 34.6354 33.7836 35.1206C32.8964 35.5716 31.3418 35.9023 30.8616 35.7559C30.8704 35.7383 30.878 35.7203 30.8854 35.7027C30.8947 35.6811 30.9037 35.6599 30.9141 35.6401C30.9229 35.6233 30.9329 35.6074 30.9449 35.5933C31.0422 35.478 31.139 35.3624 31.236 35.2468L31.2369 35.2455L31.2381 35.2443C31.553 34.8685 31.8679 34.4926 32.1943 34.1267C32.6861 33.5748 33.327 33.2613 34.024 33.0654C34.5623 32.9142 35.1113 32.8103 35.6763 32.8474C35.7013 32.8482 35.7263 32.8511 35.758 32.8555C35.771 32.8573 35.7853 32.8594 35.8011 32.8618L35.8022 32.8619L35.8031 32.8621C35.8305 32.8661 35.8624 32.8708 35.9018 32.8761Z" fill="#EFEAE6"/>
<path d="M28.1963 38.8239C27.739 39.3192 27.3106 39.8406 26.9131 40.3855C26.9853 40.385 27.0502 40.3862 27.1099 40.3874C27.2229 40.3897 27.318 40.3916 27.4116 40.3801C28.0381 40.2993 28.6633 40.2052 29.2598 39.9828C29.7066 39.8158 30.1364 39.6236 30.511 39.3091C31.082 38.8289 31.5187 38.2447 31.9169 37.6235C31.9345 37.5954 31.9463 37.563 31.9614 37.5225C31.9693 37.5012 31.9778 37.4778 31.9887 37.4513C31.9672 37.449 31.9463 37.4467 31.9262 37.4443C31.9088 37.4422 31.8922 37.4401 31.8757 37.4382C31.8 37.4289 31.7338 37.4204 31.6673 37.4221C31.1172 37.4331 30.5712 37.5197 30.0445 37.6799C29.3285 37.8967 28.7071 38.2648 28.1963 38.8239Z" fill="#EFEAE6"/>
<path d="M32.7679 30.0078C32.782 31.1003 32.7609 32.1274 32.2135 33.0552C31.7206 33.8906 31.0426 34.5486 30.232 35.1251C30.2271 35.1091 30.222 35.0945 30.2169 35.0813C30.2139 35.0726 30.2107 35.0645 30.2077 35.0568C30.1943 35.0219 30.1843 34.9962 30.1873 34.9721C30.2021 34.8482 30.2169 34.7243 30.2318 34.6004C30.2922 34.0957 30.3526 33.5907 30.4233 33.0873C30.5247 32.372 30.872 31.772 31.3288 31.2291C31.7363 30.743 32.2228 30.3301 32.7679 30.0078Z" fill="#EFEAE6"/>
<path d="M34.6634 29.7522C34.2878 30.4102 34.0524 31.1234 33.8773 31.8738C34.9172 31.4378 35.8658 30.8869 36.4379 29.864C36.7822 29.2476 37.0261 28.326 36.9341 28.0645C36.3882 28.2496 35.8797 28.5318 35.433 28.8975C35.1351 29.144 34.8572 29.413 34.6634 29.7522Z" fill="#EFEAE6"/>
</svg>
