<svg width="30" height="39" viewBox="0 0 30 39" fill="none" xmlns="http://www.w3.org/2000/svg">
<path d="M9.24609 1.12148V0C11.6896 0.135938 13.2167 0.203908 14.7099 0.203908C16.2031 0.203908 17.7304 0.135938 20.1398 0V1.12148C17.7304 0.951559 16.2031 0.883592 14.7099 0.883592C13.2167 0.883592 11.6896 0.951559 9.24609 1.12148Z" fill="#1B1F1F"/>
<path d="M10.9848 23.7252C10.9575 23.7619 10.9302 23.7988 10.9023 23.8352C10.9122 23.841 10.9201 23.8463 10.9264 23.8506C10.9372 23.858 10.9438 23.8626 10.9505 23.8624C11.7132 23.8424 12.4554 23.711 13.1651 23.4295C13.4668 23.3099 13.7559 23.1646 14.0102 22.9573C14.546 22.5209 14.9474 21.973 15.3128 21.3969C15.3205 21.3846 15.3206 21.3678 15.321 21.3475C15.321 21.3439 15.3212 21.3403 15.3212 21.3365L15.3213 21.33L15.3217 21.3242L15.3218 21.3212L15.3222 21.316L15.3227 21.3121C15.2913 21.3102 15.2611 21.3078 15.2317 21.3054C15.1691 21.3003 15.11 21.2955 15.051 21.2972C14.6042 21.3102 14.1609 21.3584 13.731 21.4866C13.135 21.6643 12.5751 21.9115 12.1467 22.3813C11.8501 22.7069 11.5604 23.0395 11.2715 23.3714L11.1706 23.4873C11.1049 23.563 11.045 23.6438 10.9848 23.7252Z" fill="#1B1F1F"/>
<path d="M8.84766 27.3371C8.86489 27.2976 8.88503 27.2591 8.90756 27.2224C9.26682 26.7341 9.66227 26.273 10.0903 25.843C10.4963 25.4365 10.986 25.1815 11.5287 25.0088C12.0354 24.8464 12.5565 24.7876 13.0851 24.7773C13.1429 24.7799 13.2004 24.7855 13.2576 24.7946C13.2521 24.812 13.2479 24.8281 13.2439 24.843C13.2424 24.8491 13.2409 24.8549 13.2393 24.8607C13.2335 24.8814 13.2276 24.8997 13.2178 24.9156C12.9128 25.4102 12.5621 25.8683 12.1383 26.2706C11.789 26.6025 11.372 26.8183 10.924 26.978C10.2816 27.207 9.61892 27.3148 8.9405 27.3477C8.90927 27.3461 8.87838 27.3425 8.84766 27.3371Z" fill="#1B1F1F"/>
<path d="M12.1581 18.9544C12.149 18.8645 12.1398 18.772 12.1321 18.6758C12.1077 18.6917 12.0876 18.7045 12.0705 18.7154C12.0625 18.7206 12.0552 18.7252 12.0483 18.7296C12.035 18.7383 12.0234 18.7459 12.0128 18.7532C12.0072 18.7571 12.0017 18.7611 11.9964 18.765C11.5713 19.087 11.2027 19.4767 10.9052 19.9183C10.6308 20.3221 10.4222 20.7554 10.3444 21.2432C10.2406 21.895 10.2425 22.5517 10.2483 23.2085C10.2519 23.2452 10.2589 23.2816 10.2691 23.317C10.2794 23.3155 10.2881 23.3149 10.2954 23.3144C10.2988 23.3143 10.3019 23.3141 10.3048 23.3137C10.3089 23.3134 10.3126 23.3129 10.3157 23.312C10.3166 23.3117 10.3176 23.3113 10.3184 23.311C10.3191 23.3108 10.3198 23.3105 10.3203 23.3102C10.321 23.3098 10.3217 23.3093 10.3224 23.3088C10.3374 23.2977 10.3524 23.2862 10.3672 23.2748L10.3763 23.2676L10.3874 23.2589C10.3927 23.2546 10.3981 23.2503 10.4034 23.2459L10.4092 23.2411L10.4174 23.2344C10.4239 23.229 10.4306 23.2233 10.437 23.2177C10.4406 23.2146 10.4444 23.2114 10.448 23.2081C10.8839 22.8258 11.2665 22.3871 11.5855 21.9037C11.856 21.4886 12.0816 21.0518 12.1398 20.5546C12.1782 20.2083 12.1966 19.86 12.1951 19.5117C12.1954 19.3299 12.1774 19.148 12.1581 18.9544Z" fill="#1B1F1F"/>
<path d="M14.7687 15.2085C14.7715 15.2124 14.7738 15.2158 14.7759 15.2188C14.7814 15.2265 14.7843 15.2317 14.7849 15.237C14.867 15.8924 14.8964 16.5473 14.7634 17.2009C14.6861 17.5817 14.5166 17.9245 14.3165 18.2528C13.9777 18.8088 13.5505 19.2913 13.0603 19.7194C13.0497 19.7286 13.0388 19.7375 13.0272 19.7464C13.0137 19.7567 12.9994 19.7671 12.9839 19.7784H12.9837C12.9685 19.7895 12.9519 19.8014 12.9338 19.8151C12.9291 19.8019 12.9236 19.79 12.9185 19.7789C12.9086 19.757 12.9001 19.7382 12.9004 19.7201C12.9023 19.65 12.904 19.5799 12.9055 19.5099C12.9071 19.4429 12.9086 19.3759 12.9101 19.3087V19.3077C12.919 18.9091 12.928 18.5106 12.948 18.1123C12.9914 17.2552 13.3723 16.5395 13.9357 15.9136C14.0797 15.7532 14.2396 15.6065 14.3992 15.46L14.4003 15.4591C14.4537 15.4101 14.5071 15.361 14.56 15.3114C14.5955 15.2778 14.6366 15.2501 14.6817 15.2199C14.7023 15.206 14.7238 15.1915 14.7459 15.1758C14.7488 15.1803 14.7515 15.1844 14.7542 15.1882C14.7564 15.1914 14.7585 15.1943 14.7604 15.197C14.7634 15.2013 14.7662 15.2051 14.7687 15.2085Z" fill="#1B1F1F"/>
<path d="M8.21865 26.6461C8.26217 26.7837 8.30655 26.9242 8.35177 27.069C8.40178 27.0023 8.41953 26.983 8.43148 26.9606C8.7165 26.4698 8.95117 25.9558 9.09692 25.4065C9.2111 24.976 9.28944 24.5383 9.22254 24.0912C9.13635 23.5153 8.9452 22.9711 8.69329 22.4472C8.68134 22.4226 8.66205 22.4013 8.63816 22.3751C8.63321 22.3697 8.62792 22.3638 8.62246 22.3577C8.61665 22.3512 8.61085 22.3445 8.60471 22.3374C8.60215 22.3343 8.59959 22.3312 8.59703 22.3281C8.57655 22.3572 8.55658 22.3838 8.53764 22.4091C8.49907 22.4611 8.46442 22.5074 8.43677 22.5577C8.41407 22.5992 8.3912 22.6404 8.36816 22.6817C8.27651 22.8465 8.18469 23.0116 8.11096 23.1839C7.84796 23.7985 7.69657 24.4351 7.79676 25.1081C7.82611 25.3074 7.86912 25.5045 7.92578 25.6978C8.0176 26.0097 8.11557 26.3199 8.21865 26.6461Z" fill="#1B1F1F"/>
<path d="M20.4222 14.8507C19.9919 15.5183 19.5634 16.1348 18.8609 16.489C18.2069 16.8181 17.061 17.0595 16.707 16.9527C16.7135 16.9398 16.7192 16.9267 16.7246 16.9138C16.7314 16.8981 16.7381 16.8826 16.7458 16.8682C16.7523 16.8559 16.7596 16.8443 16.7685 16.834C16.8402 16.7498 16.9115 16.6654 16.983 16.5811L16.9837 16.5801L16.9845 16.5793C17.2167 16.305 17.4488 16.0306 17.6894 15.7635C18.0519 15.3607 18.5243 15.1318 19.0381 14.9889C19.4349 14.8785 19.8395 14.8026 20.256 14.8297C20.2744 14.8303 20.2928 14.8324 20.3162 14.8356C20.3258 14.837 20.3363 14.8385 20.3479 14.8402L20.3488 14.8403L20.3495 14.8404C20.3696 14.8434 20.3932 14.8468 20.4222 14.8507Z" fill="#1B1F1F"/>
<path d="M14.7427 19.1874C14.4057 19.5489 14.0899 19.9295 13.7969 20.3272C13.8501 20.3269 13.8979 20.3277 13.9419 20.3286C14.0252 20.3303 14.0954 20.3317 14.1643 20.3233C14.6262 20.2643 15.087 20.1956 15.5266 20.0333C15.856 19.9114 16.1728 19.7711 16.4489 19.5416C16.8698 19.191 17.1917 18.7646 17.4852 18.3112C17.4982 18.2907 17.5069 18.2671 17.518 18.2375C17.5238 18.222 17.5301 18.2049 17.5381 18.1856C17.5223 18.1839 17.5069 18.1822 17.492 18.1804C17.4792 18.1789 17.467 18.1774 17.4548 18.176C17.399 18.1692 17.3502 18.163 17.3012 18.1642C16.8957 18.1722 16.4933 18.2355 16.105 18.3524C15.5773 18.5106 15.1192 18.7793 14.7427 19.1874Z" fill="#1B1F1F"/>
<path d="M18.1135 12.7539C18.1239 13.5513 18.1083 14.301 17.7049 14.9782C17.3415 15.588 16.8418 16.0683 16.2443 16.4891C16.2407 16.4774 16.2369 16.4668 16.2332 16.4571C16.231 16.4508 16.2286 16.4448 16.2264 16.4392C16.2165 16.4137 16.2091 16.395 16.2113 16.3774C16.2223 16.2869 16.2332 16.1965 16.2441 16.1061C16.2887 15.7377 16.3332 15.3691 16.3853 15.0016C16.46 14.4796 16.716 14.0416 17.0527 13.6454C17.3531 13.2906 17.7117 12.9891 18.1135 12.7539Z" fill="#1B1F1F"/>
<path d="M19.5111 12.5678C19.2342 13.0481 19.0607 13.5687 18.9316 14.1164C19.6981 13.7982 20.3973 13.3961 20.8191 12.6494C21.0729 12.1995 21.2526 11.5268 21.1848 11.3359C20.7824 11.4711 20.4076 11.677 20.0784 11.944C19.8587 12.1239 19.6539 12.3202 19.5111 12.5678Z" fill="#1B1F1F"/>
<path fill-rule="evenodd" clip-rule="evenodd" d="M28.837 23.0673C26.7465 30.8799 19.0836 35.2272 10.9868 33.0546C2.85728 30.8733 -1.5757 23.2805 0.514662 15.4678C2.59632 7.68797 10.2353 3.2992 18.3649 5.48054C26.4616 7.65311 30.9187 15.2875 28.837 23.0673ZM11.0921 32.6606C3.78214 30.6993 0.759403 22.9571 2.61271 16.0307C4.45714 9.13721 10.9494 3.913 18.2596 5.87446C25.5368 7.82713 28.5836 15.6109 26.739 22.5044C24.8857 29.4308 18.3695 34.6135 11.0921 32.6606Z" fill="#1B1F1F"/>
<path d="M9.24609 37.1875V38.309C11.6896 38.1391 13.2167 38.0711 14.7099 38.0711C16.2031 38.0711 17.7303 38.1391 20.1398 38.309V37.1875C17.7303 37.3234 16.2031 37.3914 14.7099 37.3914C13.2167 37.3914 11.6896 37.3234 9.24609 37.1875Z" fill="#1B1F1F"/>
</svg>
