<svg width="46" height="61" viewBox="0 0 46 61" fill="none" xmlns="http://www.w3.org/2000/svg">
<path d="M14.4922 2.47203V0.714844C18.3223 0.927837 20.7161 1.03434 23.0567 1.03434C25.3972 1.03434 27.7913 0.927837 31.5679 0.714844V2.47203C27.7913 2.20579 25.3972 2.0993 23.0567 2.0993C20.7161 2.0993 18.3223 2.20579 14.4922 2.47203Z" fill="#3F4443"/>
<path d="M17.2191 37.8754C17.1763 37.933 17.1334 37.9908 17.0898 38.0478C17.1054 38.0569 17.1177 38.0652 17.1276 38.0719C17.1444 38.0834 17.1549 38.0906 17.1653 38.0904C18.3608 38.059 19.5243 37.8532 20.6366 37.4123C21.1096 37.225 21.5628 36.9974 21.9614 36.6727C22.8012 35.9894 23.4304 35.1312 24.0031 34.2289C24.0152 34.2096 24.0154 34.1834 24.016 34.1515C24.016 34.1459 24.0162 34.1403 24.0162 34.1344L24.0165 34.1242L24.017 34.1151L24.0173 34.1103L24.0178 34.1023L24.0186 34.0961C23.9694 34.0932 23.9221 34.0894 23.8761 34.0857C23.7779 34.0776 23.6853 34.0701 23.5927 34.0728C22.8924 34.0932 22.1976 34.1686 21.5237 34.3694C20.5896 34.6478 19.7118 35.0348 19.0403 35.7707C18.5754 36.2806 18.1214 36.8015 17.6685 37.3213L17.5104 37.5028C17.4074 37.6214 17.3135 37.748 17.2191 37.8754Z" fill="#3F4443"/>
<path d="M13.8691 43.5295C13.8962 43.4677 13.9277 43.4075 13.963 43.3499C14.5262 42.5851 15.146 41.863 15.817 41.1895C16.4534 40.5529 17.2209 40.1536 18.0717 39.8829C18.8659 39.6287 19.6827 39.5366 20.5112 39.5205C20.6019 39.5245 20.692 39.5334 20.7817 39.5475C20.7731 39.5748 20.7664 39.6 20.7603 39.6233C20.7579 39.6329 20.7554 39.642 20.753 39.6511C20.7439 39.6835 20.7346 39.7122 20.7193 39.7371C20.2413 40.5117 19.6915 41.2291 19.0273 41.8592C18.4796 42.379 17.8261 42.7171 17.1238 42.9671C16.1169 43.3258 15.0781 43.4947 14.0147 43.5461C13.9657 43.5437 13.9173 43.5381 13.8691 43.5295Z" fill="#3F4443"/>
<path d="M19.0575 30.3992C19.0434 30.2584 19.0289 30.1136 19.0169 29.9629C18.9786 29.9878 18.9471 30.0079 18.9203 30.025C18.9077 30.033 18.8962 30.0402 18.8855 30.0472C18.8647 30.0609 18.8465 30.0726 18.8299 30.0841C18.8211 30.0903 18.8125 30.0965 18.8042 30.1026C18.1378 30.6069 17.56 31.2172 17.0937 31.9089C16.6635 32.5414 16.3366 33.22 16.2146 33.9839C16.052 35.0048 16.0549 36.0332 16.064 37.0619C16.0696 37.1194 16.0806 37.1765 16.0966 37.2319C16.1127 37.2295 16.1263 37.2287 16.1378 37.2279C16.1432 37.2276 16.148 37.2273 16.1525 37.2268C16.159 37.2262 16.1648 37.2254 16.1697 37.2241C16.171 37.2236 16.1726 37.223 16.1739 37.2225C16.175 37.2222 16.1761 37.2217 16.1769 37.2212C16.178 37.2206 16.179 37.2198 16.1801 37.219C16.2036 37.2016 16.2272 37.1837 16.2505 37.1658L16.2646 37.1545L16.282 37.1409C16.2903 37.1342 16.2989 37.1275 16.3072 37.1205L16.3163 37.113L16.3291 37.1026C16.3393 37.094 16.3497 37.0852 16.3599 37.0763C16.3655 37.0715 16.3714 37.0664 16.377 37.0614C17.0602 36.4626 17.66 35.7755 18.16 35.0185C18.584 34.3683 18.9377 33.6841 19.0289 32.9054C19.0891 32.3631 19.118 31.8176 19.1156 31.2721C19.1161 30.9873 19.0878 30.7025 19.0575 30.3992Z" fill="#3F4443"/>
<path d="M23.1493 24.5328C23.1536 24.5388 23.1573 24.5441 23.1605 24.5488C23.1691 24.5609 23.1736 24.569 23.1747 24.5773C23.3034 25.6037 23.3494 26.6295 23.141 27.6531C23.0198 28.2495 22.7542 28.7865 22.4404 29.3007C21.9093 30.1714 21.2397 30.9271 20.4714 31.5976C20.4548 31.6121 20.4377 31.626 20.4195 31.6399C20.3983 31.656 20.3759 31.6723 20.3515 31.69H20.3513C20.3275 31.7074 20.3015 31.7261 20.2731 31.7475C20.2657 31.7269 20.2571 31.7082 20.2491 31.6908C20.2336 31.6565 20.2202 31.6271 20.2207 31.5987C20.2237 31.4889 20.2263 31.3792 20.2287 31.2694C20.2312 31.1645 20.2336 31.0596 20.236 30.9544V30.9528C20.2499 30.3286 20.2641 29.7043 20.2954 29.0807C20.3633 27.7383 20.9604 26.6173 21.8435 25.6369C22.0693 25.3858 22.32 25.1561 22.5701 24.9266L22.5717 24.9253C22.6554 24.8484 22.7392 24.7716 22.8221 24.6939C22.8778 24.6412 22.9422 24.5978 23.0129 24.5505C23.0452 24.5287 23.0789 24.5061 23.1134 24.4814C23.118 24.4885 23.1223 24.495 23.1266 24.5009C23.13 24.5059 23.1332 24.5104 23.1362 24.5147C23.141 24.5215 23.1453 24.5274 23.1493 24.5328Z" fill="#3F4443"/>
<path d="M12.8839 42.4474C12.9522 42.6629 13.0217 42.8829 13.0926 43.1097C13.171 43.0053 13.1988 42.975 13.2175 42.94C13.6643 42.1712 14.0322 41.3663 14.2606 40.506C14.4396 39.8317 14.5624 39.1462 14.4575 38.4459C14.3224 37.5439 14.0228 36.6916 13.6279 35.8711C13.6092 35.8326 13.579 35.7991 13.5415 35.7582C13.5338 35.7496 13.5255 35.7405 13.5169 35.7309C13.5078 35.7207 13.4987 35.7103 13.4891 35.699C13.4851 35.6942 13.4811 35.6894 13.477 35.6846C13.4449 35.7301 13.4136 35.7718 13.384 35.8114C13.3235 35.8928 13.2692 35.9654 13.2258 36.0441C13.1903 36.1091 13.1544 36.1736 13.1183 36.2384C12.9746 36.4964 12.8307 36.755 12.7151 37.0248C12.3029 37.9874 12.0656 38.9845 12.2226 40.0386C12.2686 40.3507 12.3361 40.6593 12.4249 40.9621C12.5688 41.4506 12.7224 41.9364 12.8839 42.4474Z" fill="#3F4443"/>
<path d="M32.0119 23.9712C31.3375 25.0168 30.6658 25.9823 29.5646 26.537C28.5395 27.0525 26.7433 27.4306 26.1885 27.2633C26.1986 27.2431 26.2075 27.2226 26.216 27.2024C26.2267 27.1777 26.2372 27.1535 26.2492 27.1309C26.2594 27.1116 26.2709 27.0935 26.2848 27.0773C26.3971 26.9455 26.509 26.8134 26.6211 26.6812L26.6221 26.6798L26.6235 26.6784C26.9873 26.2488 27.3511 25.819 27.7283 25.4008C28.2966 24.7699 29.0371 24.4114 29.8423 24.1876C30.4643 24.0147 31.0986 23.8959 31.7514 23.9383C31.7803 23.9393 31.8092 23.9425 31.8458 23.9476C31.8608 23.9497 31.8774 23.9521 31.8956 23.9547L31.8969 23.9549L31.898 23.9551C31.9295 23.9597 31.9665 23.9651 32.0119 23.9712Z" fill="#3F4443"/>
<path d="M23.1096 30.7679C22.5812 31.334 22.0863 31.9301 21.627 32.553C21.7104 32.5525 21.7853 32.5538 21.8543 32.5551C21.9849 32.5578 22.0948 32.56 22.2029 32.5468C22.9268 32.4545 23.6492 32.3469 24.3383 32.0926C24.8546 31.9017 25.3511 31.682 25.784 31.3225C26.4437 30.7735 26.9483 30.1056 27.4084 29.3955C27.4287 29.3634 27.4424 29.3264 27.4598 29.2801C27.4688 29.2557 27.4788 29.229 27.4913 29.1987C27.4664 29.1961 27.4424 29.1934 27.4191 29.1907C27.399 29.1883 27.3798 29.1859 27.3608 29.1837C27.2733 29.173 27.1968 29.1634 27.12 29.1653C26.4844 29.1779 25.8535 29.2769 25.2449 29.46C24.4178 29.7079 23.6997 30.1286 23.1096 30.7679Z" fill="#3F4443"/>
<path d="M28.3913 20.6885C28.4077 21.9374 28.3833 23.1115 27.7509 24.1722C27.1813 25.1272 26.398 25.8794 25.4614 26.5384C25.4558 26.5201 25.4499 26.5035 25.4441 26.4883C25.4406 26.4784 25.4368 26.4691 25.4333 26.4604C25.4178 26.4204 25.4063 26.391 25.4098 26.3635C25.4269 26.2219 25.4441 26.0802 25.4612 25.9386C25.531 25.3616 25.6008 24.7844 25.6824 24.2088C25.7996 23.3912 26.2009 22.7053 26.7287 22.0846C27.1995 21.529 27.7616 21.0569 28.3913 20.6885Z" fill="#3F4443"/>
<path d="M30.5821 20.3991C30.1481 21.1514 29.8761 21.9667 29.6738 22.8245C30.8753 22.3261 31.9713 21.6963 32.6324 20.5269C33.0302 19.8222 33.3119 18.7687 33.2057 18.4697C32.5748 18.6814 31.9874 19.004 31.4713 19.4221C31.127 19.7039 30.806 20.0113 30.5821 20.3991Z" fill="#3F4443"/>
<path fill-rule="evenodd" clip-rule="evenodd" d="M45.2015 36.8451C41.9246 49.0811 29.9132 55.8897 17.2216 52.487C4.47873 49.0707 -2.46989 37.1789 0.806724 24.9427C4.06969 12.758 16.0437 5.88436 28.7866 9.30076C41.4782 12.7034 48.4645 24.6604 45.2015 36.8451ZM17.3867 51.87C5.92844 48.7982 1.19035 36.6724 4.09538 25.8244C6.98649 15.0278 17.163 6.84569 28.6216 9.9177C40.0284 12.976 44.8043 25.1669 41.9129 35.9634C39.0079 46.8115 28.7938 54.9285 17.3867 51.87Z" fill="#3F4443"/>
<path d="M14.4922 58.958V60.7152C18.3223 60.4491 20.7161 60.3425 23.0567 60.3425C25.3972 60.3425 27.791 60.4491 31.5679 60.7152V58.958C27.791 59.1709 25.3972 59.2775 23.0567 59.2775C20.7161 59.2775 18.3223 59.1709 14.4922 58.958Z" fill="#3F4443"/>
</svg>
