<svg width="156" height="75" viewBox="0 0 156 75" fill="none" xmlns="http://www.w3.org/2000/svg">
<path d="M60.0672 50.8371C60.0672 50.8371 58.6092 46.9364 53.6522 46.9364C48.9868 46.9364 46.2653 51.0144 46.2653 55.181C46.2653 60.0569 49.2784 63.337 53.7494 63.337C58.8036 63.337 58.8036 60.9434 58.8036 58.5498C58.8036 57.6633 58.8036 56.4222 57.2485 56.4222H56.5681V55.9789H62.8859V56.4222C62.8859 56.4222 62.3999 56.4222 62.1083 56.4222C60.8447 56.4222 60.8447 57.486 60.8447 58.1952V60.0569C60.8447 60.8547 60.8447 60.9434 61.0391 61.298C60.7476 61.6526 60.456 61.9186 59.5812 62.4505C58.7064 62.9824 56.9569 63.9576 53.8466 63.9576C48.2092 63.9576 43.9326 60.0569 43.9326 55.5356C43.9326 50.1279 48.9868 46.4932 53.7494 46.4932C54.9158 46.4932 55.8877 46.7591 56.5681 47.0251C58.0261 47.557 58.2205 47.557 58.6092 47.557C59.2896 47.557 59.5812 47.4683 59.8728 47.3797L60.456 50.8371H60.0672Z" fill="#3F4443"/>
<path d="M132.089 46.5801V46.9347C132.284 46.9347 132.575 46.9347 132.77 46.9347C133.159 46.9347 133.839 47.112 134.033 47.4666C134.422 47.8212 134.617 48.3531 134.617 49.7715V61.0303L121.592 47.2893C121.398 47.112 121.106 46.9347 120.912 46.7574C120.718 46.5801 119.94 46.5801 118.968 46.5801C118.19 46.5801 117.802 46.5801 117.607 46.5801V46.9347H117.996C118.774 46.9347 118.871 47.0233 119.454 47.5552L120.134 48.1758V61.0303L107.11 47.2893C106.916 47.112 106.624 46.9347 106.43 46.7574C106.235 46.5801 105.458 46.5801 104.486 46.5801C103.708 46.5801 103.319 46.5801 103.125 46.5801V46.9347H103.514C104.291 46.9347 104.389 47.0233 104.972 47.5552L105.652 48.1758V60.4984C105.652 62.7147 105.069 63.2466 103.319 63.2466V63.6012H108.86V63.2466C106.721 63.2466 106.332 62.5374 106.332 60.4984V48.9737L119.94 63.7785C120.037 63.8672 120.232 63.8672 120.329 63.8672C120.426 63.8672 120.523 63.8672 120.523 63.8672C120.718 63.7785 120.718 63.6012 120.718 63.5125V48.9737L134.519 63.7785C134.617 63.8672 134.811 63.8672 134.908 63.8672C135.005 63.8672 135.103 63.8672 135.103 63.8672C135.297 63.7785 135.297 63.6012 135.297 63.5125V49.7715C135.297 47.5552 135.686 47.0233 137.047 47.0233C137.241 47.0233 137.435 47.0233 137.63 47.0233V46.6687H132.089V46.5801Z" fill="#3F4443"/>
<path d="M96.1273 46.5801L97.5852 50.0375H97.1964C96.1273 47.4666 93.3086 47.2006 90.8786 47.2006C90.4899 47.2006 89.6151 47.2006 89.6151 47.8212V54.3814H92.7254C94.4749 54.3814 94.9609 53.4949 94.6693 52.2538H95.0581L95.9329 57.2183H95.5441C95.0581 55.002 93.7945 55.0906 89.5179 55.0906V62.0055C89.5179 62.7147 90.1983 63.1579 90.8786 63.1579H92.7254C95.4469 63.1579 97.002 62.3601 98.3628 60.4984H98.8488L96.8076 63.6898H85.144V63.1579C85.3384 63.1579 85.63 63.2466 85.8244 63.2466C86.116 63.2466 86.602 63.1579 86.8936 62.9806C87.3796 62.5374 87.574 61.9168 87.574 60.9416V48.7964C87.574 47.8212 87.4768 46.9347 86.116 46.9347C85.7272 46.9347 85.7272 46.9347 85.3384 46.9347V46.5801H96.1273Z" fill="#3F4443"/>
<path d="M153.279 46.5801L154.736 50.0375H154.348C153.279 47.4666 150.46 47.2006 148.03 47.2006C147.641 47.2006 146.766 47.2006 146.766 47.8212V54.3814H149.877C151.626 54.3814 152.015 53.4949 151.821 52.2538H152.209L153.084 57.2183H152.695C152.209 55.002 150.946 55.0906 146.669 55.0906V62.0055C146.669 62.7147 147.35 63.1579 148.03 63.1579H149.877C152.598 63.1579 154.153 62.3601 155.514 60.4984H156L153.959 63.6898H142.295V63.1579C142.49 63.1579 142.781 63.2466 142.976 63.2466C143.267 63.2466 143.753 63.1579 144.045 62.9806C144.531 62.5374 144.725 61.9168 144.725 60.9416V48.7964C144.725 47.8212 144.628 46.9347 143.267 46.9347C142.879 46.9347 142.879 46.9347 142.49 46.9347V46.5801H153.279Z" fill="#3F4443"/>
<path d="M37.4207 46.5801L38.8786 50.0375H38.4898C37.4207 47.4666 34.602 47.2006 32.1721 47.2006C31.7833 47.2006 30.9085 47.2006 30.9085 47.8212V54.3814H34.0188C35.7683 54.3814 36.1571 53.4949 35.9627 52.2538H36.3515L37.2263 57.2183H36.8375C36.3515 55.002 35.088 55.0907 30.8113 55.0907V62.0055C30.8113 62.7147 31.4917 63.0693 32.1721 63.0693H34.0188C36.7403 63.0693 38.2954 62.2714 39.6562 60.4098H40.1422L38.101 63.6012H26.4375V63.0693C26.6319 63.0693 26.9235 63.158 27.1179 63.158C27.4095 63.158 27.8954 63.0693 28.187 62.892C28.673 62.4488 28.8674 61.8282 28.8674 60.853V48.7964C28.8674 47.8212 28.7702 46.9347 27.4095 46.9347C27.0207 46.9347 27.0207 46.9347 26.6319 46.9347V46.5801H37.4207Z" fill="#3F4443"/>
<path d="M0 63.1595C0.291589 63.1595 0.583177 63.1595 0.874766 63.1595C1.84673 63.1595 2.72149 62.5389 2.72149 60.1453V45.4291C2.72149 43.3901 1.65234 43.2128 0.0971962 43.2128V42.7695C1.74953 42.7695 7.09533 42.7695 10.4972 42.7695C12.8299 42.7695 16.5234 42.7695 19.4392 45.695C21.286 47.6454 22.4523 50.3049 22.4523 52.9645C22.4523 56.7765 19.9252 63.5141 10.6916 63.5141C7.97009 63.5141 0.291589 63.5141 0 63.5141L0 63.1595ZM5.1514 61.0318C5.1514 62.1843 5.34579 63.0708 8.94205 63.0708C11.1776 63.0708 13.2187 62.9822 14.871 62.2729C19.3421 60.4113 19.9252 56.156 19.9252 53.7624C19.9252 51.1028 18.8561 48 17.3009 46.4043C14.9682 44.0107 12.9271 43.7447 9.91402 43.7447H5.83177C5.44299 43.7447 5.1514 44.0993 5.1514 44.4539V61.0318Z" fill="#3F4443"/>
<path d="M85.8241 65.6405C83.297 65.5518 81.0615 62.8036 78.9232 60.1441C76.6877 57.4845 75.327 55.6228 73.6746 55.0022C77.4653 54.9136 79.2148 52.8746 79.2148 50.8356C79.2148 48.3533 77.0765 46.6689 73.5774 46.6689C73.0914 46.6689 66.2877 46.6689 66.2877 46.6689V47.1122C66.4821 47.1122 66.7737 47.1122 66.9681 47.1122C68.2316 47.1122 68.3288 47.9987 68.3288 48.7079V61.2965C68.3288 62.9809 67.4541 63.3355 66.6765 63.3355C66.4821 63.3355 65.8989 63.3355 65.8989 63.3355V63.6901H72.3139V63.3355C70.6615 63.3355 70.1756 62.8923 70.1756 62.0057V54.6476C73.0914 55.1795 74.4522 57.8391 77.1737 61.3852C79.312 64.1334 81.1587 66.261 84.9494 66.261C85.7269 66.261 86.7961 66.1724 87.7681 65.5518V65.2859C87.2821 65.5518 86.6017 65.6405 85.8241 65.6405ZM70.1756 48.176C70.1756 47.6441 70.1756 47.1122 72.3139 47.1122C76.2989 47.1122 76.9793 49.9491 76.9793 50.9242C76.9793 53.4952 74.6466 54.559 72.7999 54.559C71.4391 54.559 70.7587 54.2044 70.1756 53.9384V48.176Z" fill="#3F4443"/>
<path d="M62.6918 70.8701C63.4694 70.8701 63.8582 71.402 63.8582 71.9339C63.8582 72.4659 63.5666 72.9978 62.6918 72.9978H61.7199V74.4162H61.2339V70.8701H62.6918ZM61.6227 71.3134V72.6432H62.5947C63.0806 72.6432 63.275 72.2886 63.275 72.0226C63.275 71.668 63.0806 71.402 62.6918 71.402H61.6227V71.3134Z" fill="#3F4443"/>
<path d="M70.3704 73.5297L69.9816 74.4162H69.3984L70.8564 70.8701H71.4395L72.8975 74.4162H72.3143L71.9255 73.5297H70.3704ZM71.7311 73.0864L71.0508 71.4907L70.3704 73.0864H71.7311Z" fill="#3F4443"/>
<path d="M81.5476 74.4162H80.9644L79.9925 73.0864H79.5065V74.4162H79.0205V70.8701H80.4784C81.256 70.8701 81.6448 71.402 81.6448 71.9339C81.6448 72.4659 81.3532 72.9978 80.6728 72.9978L81.5476 74.4162ZM79.5065 71.3134V72.6432H80.3812C80.8672 72.6432 81.0616 72.2886 81.0616 72.0226C81.0616 71.668 80.8672 71.402 80.4784 71.402H79.5065V71.3134Z" fill="#3F4443"/>
<path d="M88.5456 70.8701V74.4162H88.0596V70.8701H88.5456Z" fill="#3F4443"/>
<path d="M96.6132 74.0628C97.0992 74.0628 97.3908 73.7968 97.3908 73.5309C97.3908 73.1763 97.0992 72.999 96.7104 72.9103L96.2244 72.8217C95.4468 72.6443 95.2524 72.2011 95.2524 71.9351C95.2524 71.3146 95.8356 70.96 96.516 70.96C97.1964 70.96 97.7796 71.3146 97.7796 72.0238C97.6824 72.0238 97.3908 72.0238 97.2936 72.0238C97.2936 71.6692 97.002 71.4032 96.6132 71.4032C96.2244 71.4032 95.9328 71.5805 95.9328 71.9351C95.9328 72.1124 96.03 72.2897 96.516 72.467L97.002 72.5557C97.6824 72.733 98.0712 73.0876 98.0712 73.6195C97.974 74.1514 97.5852 74.506 96.8076 74.506C96.03 74.506 95.4468 73.9741 95.4468 73.4422C95.544 73.4422 95.9328 73.4422 95.9328 73.4422C95.8356 73.7082 96.1272 74.0628 96.6132 74.0628Z" fill="#3F4443"/>
<path d="M86.2134 3.85206C84.2695 2.07902 81.8396 1.10385 79.2153 0.837891V0.926543C82.1312 1.28115 85.5331 4.38397 81.9368 7.75275C81.1593 8.46196 79.6041 9.96905 79.6041 9.96905C79.6041 9.96905 81.2564 8.46196 82.034 7.8414C85.6303 4.56127 89.1293 7.66409 89.5181 10.3237H89.6153C89.2265 7.93005 88.1574 5.6251 86.2134 3.85206Z" fill="#3F4443"/>
<path d="M69.7871 18.832C71.7311 20.605 74.161 21.5802 76.7853 21.8461V21.7575C73.8694 21.4029 70.4675 18.3001 74.0638 14.9313C74.8413 14.222 76.3965 12.715 76.3965 12.715C76.3965 12.715 74.7442 14.222 73.9666 14.8426C70.3703 18.1227 66.8712 15.0199 66.4824 12.3604H66.3853C66.774 14.754 67.8432 17.0589 69.7871 18.832Z" fill="#3F4443"/>
<path d="M86.213 18.838C88.1569 17.065 89.2261 14.8487 89.5176 12.4551H89.4204C89.0317 15.1146 85.6298 18.2174 81.9364 14.9373C81.1588 14.2281 79.5065 12.8097 79.5065 12.8097C79.5065 12.8097 81.1588 14.3168 81.8392 15.026C85.4354 18.3061 82.0336 21.4976 79.1177 21.8522V21.9408C81.742 21.5862 84.2691 20.611 86.213 18.838Z" fill="#3F4443"/>
<path d="M69.7871 3.85205C67.8432 5.62509 66.774 7.84139 66.4824 10.235H66.5796C66.9684 7.57543 70.3703 4.47262 74.0637 7.75273C74.8413 8.46195 76.4936 9.88038 76.4936 9.88038C76.4936 9.88038 74.8413 8.3733 74.1609 7.66408C70.3703 4.38396 73.7721 1.28115 76.7852 0.926542V0.837891C74.2581 1.10385 71.731 2.07902 69.7871 3.85205Z" fill="#3F4443"/>
</svg>
