<svg width="215" height="61" viewBox="0 0 215 61" fill="none" xmlns="http://www.w3.org/2000/svg">
<path d="M27.6309 13.115C27.4765 13.3949 27.3123 13.6921 27.1318 14.0165L16.8087 33.208V41.9953C16.8087 45.3375 16.8628 47.3321 17.133 52.1299H13.4038C13.728 47.3321 13.728 45.3375 13.728 41.9953V33.208L3.35093 14.0703C2.26999 12.0218 1.56737 11.0515 0 9.00293H4.48594C5.01964 10.733 5.55333 11.6965 6.32793 13.0949C6.49466 13.3959 6.67256 13.7171 6.86402 14.0703L16.6466 32.0219L26.3751 14.0703C26.4707 13.8934 26.5616 13.7253 26.6485 13.5644C27.595 11.814 28.0739 10.9284 28.9155 9.00293H30.1043C28.9339 10.754 28.4009 11.7198 27.6309 13.115Z" fill="#1B1F1F"/>
<path fill-rule="evenodd" clip-rule="evenodd" d="M39.8908 9.00293L50.7003 46.7392C51.2948 49.0032 51.7272 50.0275 52.7541 52.1299H48.5384C48.3984 50.1766 48.138 49.2263 47.6871 47.5826C47.6156 47.3212 47.5389 47.0425 47.4574 46.7392L44.4308 36.2268H29.7839L26.7032 46.9007C26.5567 47.4058 26.4167 47.8453 26.2866 48.2539L26.2865 48.2541C25.8886 49.5031 25.5823 50.4648 25.4601 52.1299H24.163C25.0279 50.3615 25.3045 49.3868 25.6851 48.0462C25.7802 47.7114 25.8818 47.3535 26.0006 46.9547L36.2695 11.3749C36.4859 10.4585 36.4318 9.91937 36.1075 9.00293H39.8908ZM37.1344 10.7819L29.9462 35.58H44.2685L37.1344 10.7819Z" fill="#1B1F1F"/>
<path fill-rule="evenodd" clip-rule="evenodd" d="M56.5323 52.1299H66.0988C79.3405 52.1299 87.1772 44.0977 87.1772 30.5666C87.1772 16.3884 79.07 9.00293 66.0988 9.00293H56.5323C56.8565 13.8008 56.8565 15.7955 56.8565 19.0839V41.9953C56.8565 45.3375 56.8565 47.3321 56.5323 52.1299ZM66.0447 51.4291H59.9372V9.64983H66.0447C76.3136 9.64983 83.7182 16.5502 83.7182 30.5666C83.7182 44.0438 76.3136 51.4291 66.0447 51.4291Z" fill="#1B1F1F"/>
<path d="M140.116 52.1299H141.467C141.143 47.3321 141.143 45.3375 141.143 41.9952V11.7523L160.221 53.2081H160.816L179.138 11.5905V41.9952C179.138 45.3375 179.138 47.3321 178.814 52.1299H182.543C182.273 47.3321 182.219 45.3375 182.219 41.9952V19.0839C182.219 15.7955 182.273 13.8008 182.543 9.00293H179.57L161.789 49.0032L143.304 9.00293H140.116C140.44 13.8008 140.44 15.7955 140.44 19.0839V41.9952C140.44 45.3375 140.44 47.3321 140.116 52.1299Z" fill="#1B1F1F"/>
<path fill-rule="evenodd" clip-rule="evenodd" d="M202.043 9.00293L212.853 46.7392C213.447 49.0032 213.88 50.0275 214.907 52.1299H210.691C210.551 50.1763 210.291 49.2261 209.84 47.5826C209.81 47.4725 209.779 47.3597 209.747 47.2432C209.703 47.0824 209.657 46.9148 209.61 46.7392L206.583 36.2268H191.937L188.856 46.9007C188.709 47.4058 188.569 47.8456 188.439 48.2541C188.041 49.5031 187.735 50.4648 187.613 52.1299H186.316C187.18 50.3617 187.457 49.3871 187.838 48.0465L187.838 48.0462C187.933 47.7114 188.034 47.3535 188.153 46.9547L198.422 11.3749C198.638 10.4585 198.584 9.91937 198.26 9.00293H202.043ZM199.287 10.7819L192.099 35.58H206.421L199.287 10.7819Z" fill="#1B1F1F"/>
<path d="M105.095 1.77899V0C108.987 0.215636 111.419 0.323457 113.797 0.323457C116.175 0.323457 118.607 0.215636 122.444 0V1.77899C118.607 1.50945 116.175 1.40163 113.797 1.40163C111.419 1.40163 108.987 1.50945 105.095 1.77899Z" fill="#1B1F1F"/>
<path d="M107.864 37.6374C107.821 37.6957 107.778 37.7542 107.733 37.812C107.749 37.8212 107.761 37.8296 107.772 37.8364C107.789 37.848 107.799 37.8553 107.81 37.8551C109.025 37.8233 110.207 37.6149 111.337 37.1683C111.817 36.9786 112.278 36.7481 112.683 36.4193C113.536 35.7271 114.175 34.8579 114.757 33.944C114.769 33.9245 114.77 33.8979 114.77 33.8657C114.77 33.86 114.771 33.8543 114.771 33.8483L114.771 33.838L114.771 33.8288L114.772 33.8239L114.772 33.8158L114.773 33.8095C114.723 33.8066 114.675 33.8028 114.628 33.799C114.528 33.7908 114.434 33.7832 114.34 33.786C113.629 33.8066 112.923 33.883 112.238 34.0863C111.289 34.3683 110.397 34.7603 109.715 35.5056C109.243 36.0221 108.781 36.5497 108.321 37.0762L108.16 37.26C108.056 37.3801 107.96 37.5083 107.864 37.6374Z" fill="#1B1F1F"/>
<path d="M104.462 43.3634C104.49 43.3008 104.522 43.2398 104.558 43.1815C105.13 42.4069 105.76 41.6755 106.441 40.9934C107.088 40.3487 107.868 39.9442 108.732 39.6701C109.539 39.4125 110.369 39.3192 111.211 39.303C111.303 39.307 111.394 39.316 111.486 39.3304C111.477 39.358 111.47 39.3835 111.464 39.4071C111.461 39.4168 111.459 39.4261 111.456 39.4353C111.447 39.4681 111.438 39.4971 111.422 39.5223C110.936 40.3069 110.378 41.0335 109.703 41.6717C109.147 42.1982 108.483 42.5406 107.769 42.7938C106.746 43.1571 105.691 43.3282 104.61 43.3802C104.56 43.3778 104.511 43.3721 104.462 43.3634Z" fill="#1B1F1F"/>
<path d="M109.732 30.0659C109.718 29.9233 109.703 29.7767 109.691 29.624C109.652 29.6492 109.62 29.6696 109.593 29.6869C109.58 29.6951 109.568 29.7024 109.557 29.7094C109.536 29.7233 109.518 29.7352 109.501 29.7468C109.492 29.7531 109.483 29.7593 109.475 29.7655C108.798 30.2763 108.211 30.8945 107.737 31.595C107.3 32.2356 106.968 32.9229 106.844 33.6967C106.678 34.7307 106.681 35.7723 106.691 36.8142C106.696 36.8724 106.707 36.9302 106.724 36.9863C106.74 36.9839 106.754 36.9831 106.766 36.9822C106.771 36.982 106.776 36.9817 106.781 36.9812C106.787 36.9806 106.793 36.9798 106.798 36.9785C106.799 36.9779 106.801 36.9774 106.802 36.9768C106.803 36.9766 106.804 36.976 106.805 36.9755C106.806 36.9749 106.807 36.9741 106.809 36.9733C106.832 36.9557 106.856 36.9375 106.88 36.9193L106.894 36.908L106.912 36.8941C106.921 36.8874 106.929 36.8806 106.938 36.8735L106.947 36.8659L106.96 36.8554C106.97 36.8467 106.981 36.8377 106.991 36.8288C106.997 36.8239 107.003 36.8188 107.009 36.8136C107.703 36.2071 108.312 35.5112 108.82 34.7445C109.251 34.086 109.61 33.393 109.703 32.6043C109.764 32.0551 109.793 31.5026 109.791 30.95C109.792 30.6616 109.763 30.3731 109.732 30.0659Z" fill="#1B1F1F"/>
<path d="M113.89 24.1233C113.894 24.1294 113.898 24.1348 113.901 24.1395C113.91 24.1517 113.915 24.16 113.916 24.1684C114.046 25.208 114.093 26.247 113.882 27.2837C113.758 27.8877 113.488 28.4316 113.17 28.9524C112.63 29.8343 111.95 30.5996 111.169 31.2788C111.152 31.2934 111.135 31.3075 111.116 31.3216C111.095 31.3379 111.072 31.3544 111.047 31.3723H111.047C111.023 31.3899 110.997 31.4089 110.968 31.4306C110.96 31.4097 110.951 31.3908 110.943 31.3731C110.927 31.3384 110.914 31.3086 110.914 31.2799C110.917 31.1687 110.92 31.0576 110.923 30.9464C110.925 30.8401 110.927 30.7338 110.93 30.6273V30.6257C110.944 29.9934 110.958 29.3612 110.99 28.7295C111.059 27.3699 111.666 26.2345 112.563 25.2416C112.793 24.9872 113.047 24.7546 113.301 24.5221L113.303 24.5208C113.388 24.443 113.473 24.3651 113.558 24.2865C113.614 24.2331 113.68 24.1891 113.751 24.1412C113.784 24.1192 113.818 24.0962 113.854 24.0713C113.858 24.0784 113.862 24.085 113.867 24.091C113.87 24.096 113.874 24.1007 113.877 24.105C113.882 24.1118 113.886 24.1179 113.89 24.1233Z" fill="#1B1F1F"/>
<path d="M103.46 42.2678C103.529 42.4861 103.6 42.7089 103.672 42.9386C103.752 42.8328 103.78 42.8022 103.799 42.7667C104.253 41.988 104.627 41.1728 104.859 40.3015C105.041 39.6185 105.165 38.9242 105.059 38.215C104.922 37.3013 104.617 36.4381 104.216 35.6072C104.197 35.5681 104.166 35.5342 104.128 35.4928C104.12 35.4841 104.112 35.4749 104.103 35.4651C104.094 35.4548 104.085 35.4442 104.075 35.4329C104.071 35.428 104.067 35.4231 104.063 35.4182C104.03 35.4643 103.998 35.5066 103.968 35.5467C103.907 35.6291 103.852 35.7026 103.808 35.7823C103.771 35.8482 103.735 35.9135 103.698 35.9791C103.552 36.2405 103.406 36.5024 103.289 36.7757C102.87 37.7506 102.629 38.7605 102.788 39.8281C102.835 40.1442 102.903 40.4568 102.994 40.7634C103.14 41.2582 103.296 41.7503 103.46 42.2678Z" fill="#1B1F1F"/>
<path d="M122.895 23.5547C122.21 24.6137 121.528 25.5916 120.409 26.1534C119.367 26.6756 117.542 27.0586 116.979 26.8891C116.989 26.8686 116.998 26.8478 117.007 26.8274C117.018 26.8024 117.028 26.7779 117.04 26.755C117.051 26.7355 117.062 26.7171 117.077 26.7007C117.191 26.5672 117.304 26.4334 117.418 26.2995L117.419 26.2981L117.421 26.2967C117.79 25.8616 118.16 25.4263 118.543 25.0027C119.121 24.3637 119.873 24.0006 120.691 23.7739C121.323 23.5988 121.968 23.4785 122.631 23.5214C122.66 23.5224 122.689 23.5257 122.727 23.5308C122.742 23.5329 122.759 23.5353 122.777 23.5381L122.779 23.5383L122.78 23.5384C122.812 23.5431 122.849 23.5486 122.895 23.5547Z" fill="#1B1F1F"/>
<path d="M113.85 30.4393C113.313 31.0127 112.811 31.6165 112.344 32.2473C112.429 32.2468 112.505 32.2481 112.575 32.2495C112.708 32.2522 112.819 32.2544 112.929 32.2411C113.665 32.1476 114.398 32.0386 115.099 31.781C115.623 31.5877 116.128 31.3651 116.567 31.001C117.238 30.445 117.75 29.7686 118.218 29.0493C118.239 29.0168 118.252 28.9794 118.27 28.9325C118.279 28.9078 118.289 28.8807 118.302 28.85C118.277 28.8473 118.252 28.8446 118.229 28.8419C118.208 28.8395 118.189 28.837 118.17 28.8349C118.081 28.824 118.003 28.8143 117.925 28.8162C117.279 28.8289 116.638 28.9292 116.02 29.1146C115.179 29.3657 114.45 29.7919 113.85 30.4393Z" fill="#1B1F1F"/>
<path d="M119.216 20.2307C119.233 21.4956 119.208 22.6849 118.566 23.7591C117.987 24.7264 117.191 25.4883 116.239 26.1557C116.234 26.1372 116.228 26.1204 116.222 26.105C116.218 26.095 116.214 26.0856 116.211 26.0767C116.195 26.0362 116.183 26.0065 116.187 25.9785C116.204 25.8351 116.222 25.6917 116.239 25.5482C116.31 24.9638 116.381 24.3792 116.464 23.7963C116.583 22.9681 116.991 22.2734 117.527 21.6448C118.005 21.082 118.576 20.6038 119.216 20.2307Z" fill="#1B1F1F"/>
<path d="M121.442 19.9366C121.001 20.6985 120.725 21.5242 120.519 22.3931C121.74 21.8882 122.853 21.2504 123.525 20.066C123.929 19.3523 124.215 18.2852 124.107 17.9824C123.467 18.1968 122.87 18.5235 122.345 18.947C121.996 19.2324 121.669 19.5438 121.442 19.9366Z" fill="#1B1F1F"/>
<path fill-rule="evenodd" clip-rule="evenodd" d="M136.296 36.5938C132.966 48.9868 120.762 55.8828 107.867 52.4364C94.9205 48.9762 87.8605 36.9318 91.1896 24.5387C94.5049 12.1976 106.671 5.23578 119.618 8.69602C132.513 12.1423 139.611 24.2527 136.296 36.5938ZM108.035 51.8115C96.3934 48.7002 91.5794 36.4189 94.531 25.4317C97.4684 14.4966 107.808 6.20945 119.45 9.32088C131.04 12.4184 135.892 24.7657 132.954 35.7007C130.003 46.688 119.625 54.9092 108.035 51.8115Z" fill="#1B1F1F"/>
<path d="M105.095 58.9905V60.7695C108.987 60.5 111.419 60.3921 113.797 60.3921C116.175 60.3921 118.607 60.5 122.444 60.7695V58.9905C118.607 59.206 116.175 59.3139 113.797 59.3139C111.419 59.3139 108.987 59.206 105.095 58.9905Z" fill="#1B1F1F"/>
</svg>
