<svg width="64" height="38" viewBox="0 0 64 38" fill="none" xmlns="http://www.w3.org/2000/svg">
<path d="M63.5814 19.1068C63.5844 29.4378 55.1236 37.8142 44.6839 37.817C34.2441 37.8195 25.7796 29.4473 25.7769 19.1163C25.7769 19.113 25.7769 19.1102 25.7769 19.1068C25.7741 8.77612 34.2349 0.399229 44.6741 0.396485C55.114 0.393741 63.5787 8.76641 63.5814 19.0973C63.5814 19.1005 63.5814 19.1035 63.5814 19.1068Z" fill="#FF9900"/>
<path d="M19.2005 0.400484C8.82269 0.465718 0.419922 8.82086 0.419922 19.106C0.419922 29.4312 8.88819 37.8113 19.3223 37.8113C24.2194 37.8113 28.6832 35.9645 32.0421 32.9376C32.0419 32.9376 32.0415 32.9371 32.0406 32.9367H32.0447C32.7325 32.3165 33.374 31.6473 33.9636 30.9337H30.091C29.5738 30.3156 29.1039 29.6715 28.6817 29.0069H35.3607C35.7669 28.3636 36.1347 27.6957 36.4611 27.0039H27.579C27.2762 26.3617 27.0134 25.7049 26.789 25.0386H37.2519C37.8825 23.1741 38.2247 21.1793 38.2247 19.1058C38.2247 17.731 38.0741 16.3907 37.7891 15.1002H26.2341C26.3773 14.436 26.5579 13.7799 26.7734 13.1351H37.2402C37.0062 12.449 36.7344 11.7804 36.4253 11.1323H27.5779C27.897 10.4576 28.2586 9.80126 28.6625 9.16751H35.3366C34.8925 8.46725 34.4009 7.79824 33.8695 7.16449H30.1483C30.7237 6.49442 31.3571 5.86341 32.0447 5.27504C28.6855 2.24771 24.2205 0.400484 19.3223 0.400484C19.2816 0.400484 19.2413 0.400273 19.2005 0.400484Z" fill="#CC0000"/>
<path d="M61.6844 28.8848C61.7872 28.8848 61.8873 28.9112 61.985 28.9631C62.0831 29.015 62.1586 29.09 62.2132 29.1873C62.2679 29.2836 62.2952 29.3851 62.2952 29.4902C62.2952 29.5941 62.2681 29.6946 62.2143 29.7909C62.1608 29.8869 62.0852 29.9619 61.988 30.0153C61.8917 30.0678 61.79 30.0944 61.6842 30.0944C61.5784 30.0944 61.4768 30.0678 61.38 30.0153C61.2829 29.9616 61.2078 29.8871 61.1532 29.7909C61.0994 29.6946 61.0728 29.5941 61.0728 29.4902C61.0728 29.3851 61.0998 29.2836 61.1547 29.1873C61.2097 29.09 61.2857 29.0157 61.3832 28.9631C61.4817 28.9112 61.5818 28.8848 61.6844 28.8848ZM61.6844 28.985C61.5988 28.985 61.5152 29.007 61.4335 29.0507C61.3524 29.0944 61.2891 29.1563 61.2434 29.2382C61.1971 29.3188 61.1741 29.4024 61.1741 29.4902C61.1741 29.5772 61.1967 29.6612 61.2413 29.741C61.2869 29.8206 61.3501 29.8831 61.4307 29.9279C61.512 29.9724 61.5963 29.9944 61.6842 29.9944C61.7725 29.9944 61.857 29.9724 61.9378 29.9279C62.0185 29.8831 62.0814 29.8206 62.1264 29.741C62.171 29.6612 62.1932 29.5774 62.1932 29.4902C62.1932 29.4024 62.1706 29.3186 62.1247 29.2382C62.0793 29.1563 62.0157 29.0944 61.934 29.0507C61.8531 29.0068 61.7699 28.985 61.6844 28.985ZM61.4164 29.8242V29.1736H61.643C61.7198 29.1736 61.7757 29.1795 61.8103 29.1921C61.8448 29.2042 61.8723 29.2247 61.893 29.2548C61.9133 29.2846 61.9237 29.3163 61.9237 29.3501C61.9237 29.3978 61.9067 29.4391 61.8721 29.4742C61.8384 29.5092 61.7925 29.5293 61.7358 29.5335C61.7591 29.543 61.7776 29.555 61.7921 29.5681C61.8188 29.5935 61.8508 29.6363 61.8892 29.6969L61.9692 29.8242H61.8399L61.7819 29.7218C61.736 29.6412 61.6991 29.5909 61.6707 29.5702C61.6513 29.5557 61.6229 29.5481 61.586 29.5481H61.5235V29.8248H61.4169L61.4164 29.8242ZM61.5227 29.4579H61.6515C61.713 29.4579 61.7546 29.4486 61.777 29.4307C61.7996 29.4121 61.8109 29.3885 61.8109 29.3585C61.8109 29.3391 61.8058 29.3218 61.7949 29.307C61.7838 29.2916 61.7689 29.2806 61.7494 29.2728C61.7305 29.2654 61.695 29.2612 61.6434 29.2612H61.5231V29.4579" fill="#FCB340"/>
<path d="M25.5958 24.4748L25.8475 22.7817C25.7099 22.7817 25.5077 22.8406 25.3289 22.8406C24.6283 22.8406 24.5408 22.4701 24.5959 22.1995L25.2862 18.7942H26.3512L26.5707 16.8725H25.567L25.7714 15.708H23.6717C23.6274 15.7519 22.4839 22.2571 22.4839 23.0496C22.4839 24.2223 23.1491 24.7442 24.0873 24.736C24.8216 24.7298 25.394 24.5287 25.5958 24.4748Z" fill="#000066"/>
<path d="M26.2329 21.245C26.2329 24.0595 28.11 24.7281 29.7096 24.7281C31.1861 24.7281 31.9603 24.3895 31.9603 24.3895L32.3148 22.4683C32.3148 22.4683 31.0672 22.9704 30.0533 22.9704C27.892 22.9704 28.2709 21.3756 28.2709 21.3756L32.423 21.3881C32.423 21.3881 32.6873 20.098 32.6873 19.5721C32.6873 18.2596 31.9647 16.6484 29.755 16.6484C27.7314 16.6489 26.2329 18.8066 26.2329 21.245ZM29.7627 18.4319C30.8985 18.4319 30.689 19.6952 30.689 19.7976H28.4546C28.4546 19.6667 28.6655 18.4319 29.7627 18.4319Z" fill="#000066"/>
<path d="M42.5064 24.473L42.8667 22.302C42.8667 22.302 41.8786 22.792 41.2012 22.792C39.7734 22.792 39.2006 21.7132 39.2006 20.554C39.2006 18.2028 40.429 16.9091 41.7964 16.9091C42.8221 16.9091 43.645 17.4789 43.645 17.4789L43.9735 15.3693C43.9735 15.3693 43.002 14.675 41.9562 14.671C38.8106 14.6587 37.0107 16.826 37.0107 20.5726C37.0107 23.0559 38.3436 24.7458 40.7453 24.7458C41.4244 24.7458 42.5064 24.473 42.5064 24.473Z" fill="#000066"/>
<path d="M14.5263 16.6807C13.1462 16.6807 12.0885 17.1196 12.0885 17.1196L11.7963 18.8353C11.7963 18.8353 12.6694 18.4842 13.9896 18.4842C14.739 18.4842 15.2873 18.5676 15.2873 19.1703C15.2873 19.5364 15.2203 19.6715 15.2203 19.6715C15.2203 19.6715 14.6289 19.6227 14.355 19.6227C12.3902 19.6227 10.7861 20.3578 10.7861 22.574C10.7861 24.3206 11.9857 24.721 12.7292 24.721C14.1493 24.721 14.7115 23.8337 14.7439 23.8312L14.7275 24.5676C14.7275 24.5676 16.4994 24.5676 16.4996 24.5676L17.2903 19.0829C17.2903 16.7554 15.2388 16.6807 14.5263 16.6807ZM14.8331 21.1343C14.8717 21.4691 14.7456 23.0524 13.5334 23.0524C12.9084 23.0524 12.746 22.5795 12.746 22.3004C12.746 21.7549 13.0453 21.1007 14.5199 21.1007C14.8634 21.1007 14.7753 21.1252 14.8331 21.1343Z" fill="#000066"/>
<path d="M19.1731 24.681C19.6264 24.681 22.2178 24.7952 22.2178 22.1489C22.2178 19.6745 19.8191 20.1636 19.8191 19.1693C19.8191 18.6748 20.2101 18.519 20.925 18.519C21.2085 18.519 22.3004 18.6083 22.3004 18.6083L22.554 16.8498C22.554 16.85 21.8475 16.6934 20.6972 16.6934C19.2083 16.6934 17.6971 17.2815 17.6971 19.2938C17.6971 21.5742 20.217 21.3452 20.217 22.3057C20.217 22.9469 19.513 22.9997 18.9702 22.9997C18.0314 22.9997 17.1861 22.6807 17.1831 22.6961L16.9146 24.4367C16.9634 24.4515 17.485 24.681 19.1731 24.681Z" fill="#000066"/>
<path d="M59.1072 15.083L58.7435 17.766C58.7435 17.766 57.9855 16.7305 56.7996 16.7305C54.5683 16.7305 53.4185 18.9309 53.4185 21.4586C53.4185 23.0905 54.2385 24.69 55.9142 24.69C57.1198 24.69 57.7882 23.8581 57.7882 23.8581L57.6996 24.5684H59.6576L61.1951 15.0976L59.1072 15.083ZM58.2428 20.2977C58.2428 21.3496 57.7163 22.755 56.6255 22.755C55.901 22.755 55.5614 22.1531 55.5614 21.2088C55.5614 19.6645 56.2622 18.6459 57.1469 18.6459C57.8709 18.6459 58.2428 19.1378 58.2428 20.2977Z" fill="#000066"/>
<path d="M3.62854 24.5805L4.85371 17.4302L5.03376 24.5805H6.42022L9.00688 17.4302L7.86107 24.5805H9.92144L11.508 15.097L8.23504 15.0723L6.28816 20.8787L6.23483 15.097H3.23536L1.62598 24.5805H3.62854Z" fill="#000066"/>
<path d="M34.6358 24.5913C35.2216 21.2948 35.4303 18.6914 37.1387 19.2306C37.384 17.9546 37.9687 16.845 38.2358 16.305C38.2358 16.305 38.1514 16.1807 37.6234 16.1807C36.722 16.1807 35.5186 17.9907 35.5186 17.9907L35.6984 16.8716H33.8241L32.5688 24.5911H34.6358V24.5913Z" fill="#000066"/>
<path d="M46.7218 16.6807C45.3411 16.6807 44.2834 17.1196 44.2834 17.1196L43.9914 18.8353C43.9914 18.8353 44.865 18.4842 46.1844 18.4842C46.9341 18.4842 47.4821 18.5676 47.4821 19.1703C47.4821 19.5364 47.4154 19.6715 47.4154 19.6715C47.4154 19.6715 46.8242 19.6227 46.5503 19.6227C44.5853 19.6227 42.9814 20.3578 42.9814 22.574C42.9814 24.3206 44.1808 24.721 44.9243 24.721C46.344 24.721 46.9066 23.8337 46.9388 23.8312L46.9221 24.5676H48.6947L49.4851 19.0829C49.4853 16.7554 47.4339 16.6807 46.7218 16.6807ZM47.0282 21.1343C47.0666 21.4691 46.9405 23.0524 45.7285 23.0524C45.103 23.0524 44.9409 22.5795 44.9409 22.3004C44.9409 21.7549 45.24 21.1007 46.7148 21.1007C47.0584 21.1007 46.9706 21.1252 47.0282 21.1343Z" fill="#000066"/>
<path d="M51.5259 24.593C51.8476 22.1677 52.443 18.7629 54.0285 19.2322C54.2737 17.9563 54.0373 17.9596 53.5095 17.9596C52.6075 17.9596 52.4078 17.9921 52.4078 17.9921L52.5879 16.873H50.7138L49.4585 24.5927H51.5259V24.593Z" fill="#000066"/>
<path d="M26.1206 23.8686L26.3726 22.1757C26.235 22.1757 26.0325 22.2339 25.854 22.2339C25.1534 22.2339 25.0761 21.8653 25.1207 21.5928L25.6867 18.1386H26.7514L27.0085 16.2661H26.0046L26.2089 15.1016H24.1964C24.152 15.1455 23.0083 21.6509 23.0083 22.4429C23.0083 23.6157 23.6737 24.138 24.6119 24.1295C25.3466 24.1234 25.9188 23.9222 26.1206 23.8686Z" fill="white"/>
<path d="M26.7583 20.6407C26.7583 23.4552 28.6356 24.124 30.235 24.124C31.7113 24.124 32.3609 23.7974 32.3609 23.7974L32.7154 21.8765C32.7154 21.8765 31.5924 22.3661 30.5783 22.3661C28.4172 22.3661 28.7956 20.7716 28.7956 20.7716H32.8857C32.8857 20.7716 33.1498 19.481 33.1498 18.9552C33.1498 17.6429 32.4897 16.0439 30.28 16.0439C28.2563 16.0444 26.7583 18.2021 26.7583 20.6407ZM30.2877 17.8276C31.4235 17.8276 31.214 19.0907 31.214 19.1929H28.9795C28.9795 19.0624 29.1907 17.8276 30.2877 17.8276Z" fill="white"/>
<path d="M43.0312 23.8686L43.3914 21.6973C43.3914 21.6973 42.4038 22.1873 41.7261 22.1873C40.2985 22.1873 39.7259 21.1086 39.7259 19.9496C39.7259 17.5984 40.9542 16.3049 42.3217 16.3049C43.3472 16.3049 44.1702 16.8747 44.1702 16.8747L44.4988 14.7651C44.4988 14.7651 43.2783 14.2764 42.2321 14.2764C39.9087 14.2764 37.6484 16.2709 37.6484 20.0169C37.6484 22.5008 38.8689 24.1414 41.2706 24.1414C41.9497 24.1416 43.0312 23.8686 43.0312 23.8686Z" fill="white"/>
<path d="M15.0509 16.0781C13.6709 16.0781 12.6129 16.517 12.6129 16.517L12.3209 18.2327C12.3209 18.2327 13.1941 17.8816 14.514 17.8816C15.2634 17.8816 15.8117 17.965 15.8117 18.5678C15.8117 18.9338 15.7445 19.0689 15.7445 19.0689C15.7445 19.0689 15.1533 19.02 14.8796 19.02C13.139 19.02 11.3105 19.755 11.3105 21.9713C11.3105 23.7176 12.5101 24.1183 13.2536 24.1183C14.6735 24.1183 15.2856 23.2065 15.3182 23.2038L15.2519 23.9648H17.024L17.8147 18.4799C17.8147 16.1531 15.7635 16.0781 15.0509 16.0781ZM15.4821 20.544C15.5205 20.879 15.2698 22.4495 14.0581 22.4495C13.433 22.4495 13.2704 21.977 13.2704 21.6975C13.2704 21.1524 13.5697 20.4979 15.0445 20.4979C15.3876 20.4984 15.4243 20.5347 15.4821 20.544Z" fill="white"/>
<path d="M19.6988 24.0767C20.1521 24.0767 22.7437 24.1907 22.7437 21.5444C22.7437 19.0704 20.3447 19.5591 20.3447 18.5652C20.3447 18.0704 20.7358 17.9146 21.4505 17.9146C21.7342 17.9146 22.8258 18.0039 22.8258 18.0039L23.0797 16.2453C23.0797 16.2455 22.3731 16.0889 21.2228 16.0889C19.734 16.0889 18.2227 16.677 18.2227 18.6893C18.2227 20.9695 20.7426 20.7407 20.7426 21.7013C20.7426 22.3424 20.0386 22.3945 19.4961 22.3945C18.5572 22.3945 17.7118 22.0758 17.7088 22.091L17.4404 23.8318C17.4891 23.8466 18.0105 24.0767 19.6988 24.0767Z" fill="white"/>
<path d="M59.7026 14.4973L59.2684 17.163C59.2684 17.163 58.5109 16.1275 57.325 16.1275C55.4809 16.1275 53.9438 18.3277 53.9438 20.8558C53.9438 22.4877 54.7637 24.0866 56.4396 24.0866C57.6452 24.0866 58.3136 23.2548 58.3136 23.2548L58.225 23.9652H60.1826L61.7201 14.4941L59.7026 14.4973ZM58.768 19.6949C58.768 20.7468 58.2417 22.152 57.1505 22.152C56.4262 22.152 56.0868 21.5503 56.0868 20.606C56.0868 19.062 56.7876 18.0431 57.6718 18.0431C58.3963 18.0429 58.768 18.5354 58.768 19.6949Z" fill="white"/>
<path d="M4.15386 23.973L5.37903 16.8227L5.55887 23.973H6.94554L9.53221 16.8227L8.38639 23.973H10.4468L12.0335 14.4893H8.84741L6.86319 20.3081L6.75994 14.4893H3.82298L2.21338 23.973H4.15386Z" fill="white"/>
<path d="M35.1625 23.9871C35.7483 20.6904 35.8569 18.0135 37.2549 18.5035C37.4995 17.2275 37.7357 16.734 38.0028 16.1939C38.0028 16.1939 37.8776 16.168 37.6147 16.168C36.7134 16.168 36.0457 17.3865 36.0457 17.3865L36.2251 16.2674H34.3512L33.0957 23.9871H35.1625Z" fill="white"/>
<path d="M47.6767 16.0781C46.2966 16.0781 45.2387 16.517 45.2387 16.517L44.9469 18.2327C44.9469 18.2327 45.82 17.8816 47.1399 17.8816C47.8894 17.8816 48.4372 17.965 48.4372 18.5678C48.4372 18.9338 48.3704 19.0689 48.3704 19.0689C48.3704 19.0689 47.7793 19.02 47.5054 19.02C45.765 19.02 43.9365 19.755 43.9365 21.9713C43.9365 23.7176 45.1359 24.1183 45.8793 24.1183C47.2993 24.1183 47.9114 23.2065 47.9438 23.2038L47.8779 23.9648C47.8779 23.9648 49.6494 23.9648 49.65 23.9648L50.4404 18.4799C50.4406 16.1531 48.3892 16.0781 47.6767 16.0781ZM48.1085 20.544C48.1469 20.879 47.896 22.4495 46.6838 22.4495C46.0588 22.4495 45.8966 21.977 45.8966 21.6975C45.8966 21.1524 46.1959 20.4979 47.6705 20.4979C48.0135 20.4984 48.05 20.5347 48.1085 20.544Z" fill="white"/>
<path d="M52.0602 23.9871C52.6462 20.6904 52.7548 18.0135 54.1524 18.5035C54.3975 17.2275 54.6339 16.734 54.9008 16.1939C54.9008 16.1939 54.7755 16.168 54.5127 16.168C53.6114 16.168 52.9436 17.3865 52.9436 17.3865L53.123 16.2674H51.2491L49.9937 23.9871H52.0602Z" fill="white"/>
<path d="M61.6775 22.7979C61.7797 22.7979 61.8804 22.8238 61.9774 22.8766C62.0754 22.9277 62.1515 23.0028 62.2061 23.1002C62.261 23.1969 62.2878 23.2976 62.2878 23.4029C62.2878 23.507 62.261 23.6075 62.207 23.7035C62.1534 23.7996 62.0781 23.8749 61.9811 23.9279C61.8842 23.9807 61.7827 24.0073 61.6773 24.0073C61.571 24.0073 61.4695 23.9807 61.3724 23.9279C61.2756 23.8745 61.2005 23.7996 61.1467 23.7035C61.0921 23.6075 61.0654 23.507 61.0654 23.4029C61.0654 23.2976 61.0925 23.1969 61.1474 23.1002C61.2024 23.0028 61.2788 22.9281 61.3763 22.8766C61.4746 22.8238 61.5753 22.7979 61.6775 22.7979ZM61.6775 22.8975C61.5919 22.8975 61.5083 22.9195 61.4266 22.9636C61.3451 23.0066 61.2818 23.0689 61.2359 23.1504C61.1902 23.2308 61.1672 23.3151 61.1672 23.4025C61.1672 23.4899 61.1894 23.5735 61.234 23.6533C61.2794 23.7329 61.3426 23.7954 61.424 23.8403C61.5047 23.8842 61.589 23.9064 61.6775 23.9064C61.7654 23.9064 61.8503 23.8842 61.9309 23.8403C62.0116 23.7954 62.0747 23.7329 62.1195 23.6533C62.1645 23.5728 62.1865 23.4899 62.1865 23.4025C62.1865 23.3151 62.1637 23.2308 62.118 23.1504C62.0726 23.0689 62.0092 23.0066 61.9273 22.9636C61.8462 22.9197 61.7633 22.8975 61.6775 22.8975ZM61.4098 23.7369V23.086H61.6361C61.7131 23.086 61.7694 23.0921 61.8036 23.1046C61.8381 23.1162 61.8652 23.1371 61.8863 23.1673C61.907 23.1973 61.9175 23.2287 61.9175 23.2625C61.9175 23.31 61.9 23.3516 61.8654 23.3866C61.8317 23.4217 61.7863 23.442 61.7295 23.4458C61.7522 23.4555 61.7709 23.4671 61.7854 23.4802C61.8117 23.5059 61.8441 23.549 61.8825 23.6092L61.9629 23.7367H61.833L61.7752 23.6343C61.7291 23.5534 61.6922 23.5032 61.664 23.4827C61.6446 23.4677 61.6163 23.4603 61.5789 23.4603H61.5168V23.7371L61.4098 23.7369ZM61.516 23.3706H61.6448C61.7065 23.3706 61.7481 23.3615 61.7703 23.3434C61.7927 23.3256 61.8044 23.3014 61.8044 23.2712C61.8044 23.252 61.7991 23.2346 61.7884 23.2201C61.7775 23.2045 61.7624 23.1933 61.743 23.1855C61.7236 23.1781 61.6888 23.1743 61.6367 23.1743H61.5162V23.3706" fill="white"/>
</svg>
