<svg width="93" height="30" viewBox="0 0 93 30" fill="none" xmlns="http://www.w3.org/2000/svg">
<g clip-path="url(#clip0)">
<path d="M40.2998 29.5662H32.7661L37.4782 0.525391H45.0114L40.2998 29.5662Z" fill="#00579F"/>
<path d="M67.6096 1.23638C66.1236 0.648783 63.7668 0 60.8525 0C53.4128 0 48.1738 3.95429 48.1417 9.60772C48.0799 13.7788 51.8927 16.0955 54.7443 17.4863C57.659 18.9075 58.6497 19.8351 58.6497 21.1018C58.6201 23.0474 56.2945 23.9442 54.1255 23.9442C51.1177 23.9442 49.5061 23.4818 47.057 22.3994L46.065 21.9354L45.0107 28.4544C46.7777 29.2568 50.033 29.9688 53.4128 30C61.3176 30 66.4639 26.1069 66.5249 20.0823C66.555 16.7764 64.5417 14.2432 60.2012 12.1733C57.5663 10.8445 55.9526 9.94854 55.9526 8.58897C55.9835 7.353 57.3174 6.08705 60.2918 6.08705C62.741 6.02505 64.5405 6.61183 65.9037 7.19902L66.5851 7.50739L67.6096 1.23638Z" fill="#00579F"/>
<path d="M77.6226 19.2781C78.243 17.6097 80.6304 11.1527 80.6304 11.1527C80.5991 11.2147 81.2496 9.45353 81.6216 8.37237L82.1481 10.8747C82.1481 10.8747 83.5747 17.8261 83.8845 19.2781C82.7071 19.2781 79.1106 19.2781 77.6226 19.2781ZM86.9219 0.525391H81.0947C79.2977 0.525391 77.9324 1.05016 77.1571 2.93492L65.9668 29.5658H73.8716C73.8716 29.5658 75.173 25.9815 75.4528 25.2095C76.32 25.2095 84.0097 25.2095 85.1253 25.2095C85.3416 26.2291 86.0243 29.5658 86.0243 29.5658H92.9997L86.9219 0.525391Z" fill="#00579F"/>
<path d="M26.4739 0.525391L19.096 20.3284L18.2898 16.3121C16.9258 11.6779 12.6479 6.64283 7.87402 4.13927L14.6319 29.5354H22.5986L34.4402 0.525391H26.4739Z" fill="#00579F"/>
<path d="M12.2449 0.525391H0.124002L0 1.11217C9.45507 3.52211 15.717 9.33117 18.2897 16.3134L15.6548 2.96654C15.221 1.11176 13.8878 0.586573 12.2449 0.525391Z" fill="#FAA61A"/>
</g>
<defs>
<clipPath id="clip0">
<rect width="93" height="30" fill="white"/>
</clipPath>
</defs>
</svg>
