<svg width="13" height="16" viewBox="0 0 13 16" fill="none" xmlns="http://www.w3.org/2000/svg">
<path d="M3.32929 11.8541C3.30529 11.8864 3.28129 11.9188 3.25684 11.9508C3.26554 11.9559 3.27244 11.9606 3.27799 11.9643C3.28744 11.9708 3.29329 11.9748 3.29914 11.9747C3.96953 11.9571 4.62192 11.8416 5.24566 11.5942C5.51087 11.489 5.76499 11.3613 5.9885 11.1791C6.45938 10.7956 6.8122 10.314 7.13337 9.80762C7.14012 9.7968 7.14027 9.78208 7.14057 9.7642C7.14057 9.76105 7.14072 9.75789 7.14072 9.75459L7.14087 9.74888L7.14117 9.74377L7.14132 9.74107L7.14162 9.73656L7.14207 9.73311C7.11447 9.73145 7.08792 9.72935 7.06212 9.72725C7.00706 9.72274 6.95516 9.71853 6.90325 9.72004C6.51053 9.73145 6.12096 9.77381 5.74309 9.88648C5.21926 10.0427 4.72707 10.2599 4.35055 10.6729C4.08983 10.9591 3.83527 11.2514 3.5813 11.5431L3.49265 11.645C3.4349 11.7115 3.38224 11.7826 3.32929 11.8541Z" fill="#3F4443"/>
<path d="M1.45158 15.0269C1.46673 14.9922 1.48443 14.9584 1.50423 14.9261C1.82 14.497 2.16758 14.0917 2.5438 13.7137C2.90068 13.3565 3.33105 13.1324 3.80808 12.9805C4.25346 12.8378 4.71144 12.7861 5.17602 12.7771C5.22687 12.7794 5.27742 12.7843 5.32767 12.7923C5.32287 12.8076 5.31913 12.8217 5.31568 12.8348C5.31433 12.8402 5.31297 12.8453 5.31162 12.8504C5.30652 12.8686 5.30127 12.8847 5.29272 12.8986C5.02466 13.3334 4.71639 13.736 4.34392 14.0896C4.03685 14.3813 3.67037 14.571 3.2766 14.7113C2.71196 14.9126 2.12948 15.0074 1.53319 15.0363C1.50574 15.0349 1.47859 15.0318 1.45158 15.0269Z" fill="#3F4443"/>
<path d="M4.35974 7.65892C4.35179 7.57991 4.34369 7.49864 4.33694 7.41406C4.31549 7.42803 4.29779 7.4393 4.28279 7.44891C4.27574 7.45342 4.26929 7.45748 4.26329 7.46138C4.25159 7.46904 4.24138 7.47565 4.23208 7.48211C4.22713 7.48557 4.22234 7.48902 4.21769 7.49248C3.84402 7.77549 3.51999 8.11799 3.25853 8.50616C3.01732 8.86113 2.834 9.24193 2.7656 9.67066C2.67439 10.2436 2.67605 10.8207 2.68115 11.398C2.6843 11.4303 2.69045 11.4623 2.69945 11.4934C2.70845 11.4921 2.7161 11.4916 2.72255 11.4912C2.72555 11.491 2.72825 11.4909 2.7308 11.4906C2.7344 11.4903 2.7377 11.4898 2.7404 11.4891C2.74115 11.4888 2.74205 11.4885 2.7428 11.4882C2.7434 11.488 2.744 11.4877 2.74445 11.4874C2.74505 11.4871 2.74565 11.4867 2.74625 11.4862C2.75945 11.4764 2.77265 11.4664 2.7857 11.4563L2.79365 11.45L2.8034 11.4423C2.80805 11.4386 2.81285 11.4348 2.8175 11.4309L2.8226 11.4267L2.8298 11.4209C2.8355 11.4161 2.84135 11.4111 2.84705 11.4061C2.8502 11.4034 2.8535 11.4006 2.85665 11.3977C3.23978 11.0617 3.5761 10.6761 3.85646 10.2513C4.09423 9.88637 4.29254 9.50241 4.34369 9.06542C4.37745 8.76108 4.39364 8.45493 4.39229 8.14879C4.39259 7.98895 4.37669 7.82912 4.35974 7.65892Z" fill="#3F4443"/>
<path d="M6.65466 4.3662C6.65706 4.36961 6.65916 4.37257 6.66096 4.37518C6.66576 4.38197 6.66831 4.38655 6.66891 4.3912C6.74106 4.96723 6.76686 5.54291 6.65001 6.11735C6.58205 6.45204 6.4331 6.75338 6.25713 7.04196C5.95937 7.53062 5.58389 7.95469 5.15306 8.33099C5.14376 8.3391 5.13416 8.34691 5.12396 8.35472C5.11211 8.36374 5.09951 8.3729 5.08586 8.38282H5.08571C5.07236 8.39258 5.05781 8.40309 5.04191 8.41511C5.0377 8.40355 5.03291 8.39303 5.0284 8.38327C5.0197 8.36404 5.01221 8.34751 5.01251 8.33159C5.01416 8.27 5.01566 8.20841 5.01701 8.14682C5.01836 8.08793 5.0197 8.02905 5.02105 7.97001V7.96911C5.02885 7.6188 5.03681 7.26849 5.05436 6.91847C5.09246 6.16512 5.42728 5.53603 5.92246 4.98587C6.04907 4.84492 6.18963 4.716 6.32989 4.5872L6.33079 4.58647C6.37774 4.54334 6.4247 4.50021 6.4712 4.45665C6.5024 4.42708 6.53855 4.40269 6.57815 4.37614C6.5963 4.36395 6.61521 4.35122 6.63456 4.3374C6.63711 4.34135 6.63951 4.34499 6.64191 4.34832C6.64386 4.3511 6.64566 4.35367 6.64731 4.35606C6.65001 4.35986 6.65241 4.36321 6.65466 4.3662Z" fill="#3F4443"/>
<path d="M0.898186 14.4198C0.936439 14.5407 0.975441 14.6642 1.01519 14.7915C1.05915 14.7329 1.07475 14.7159 1.08525 14.6962C1.33577 14.2648 1.54203 13.8131 1.67014 13.3303C1.7705 12.9519 1.83935 12.5672 1.78055 12.1742C1.70479 11.6679 1.53678 11.1896 1.31537 10.7292C1.30487 10.7076 1.28791 10.6888 1.26691 10.6658C1.26256 10.661 1.25791 10.6559 1.25311 10.6505C1.24801 10.6448 1.24291 10.6389 1.23751 10.6326C1.23526 10.6299 1.23301 10.6272 1.23076 10.6245C1.21276 10.65 1.19521 10.6735 1.17856 10.6957C1.14466 10.7414 1.1142 10.7821 1.0899 10.8263C1.06995 10.8628 1.04985 10.899 1.0296 10.9353C0.949041 11.0801 0.868337 11.2252 0.803532 11.3767C0.572366 11.9168 0.439306 12.4764 0.527362 13.068C0.553164 13.2431 0.590964 13.4163 0.640767 13.5862C0.721473 13.8604 0.80758 14.133 0.898186 14.4198Z" fill="#3F4443"/>
<path d="M11.6247 4.05111C11.2465 4.63792 10.8699 5.17976 10.2524 5.49105C9.67757 5.78039 8.6704 5.99256 8.35928 5.89865C8.36498 5.88731 8.36994 5.87581 8.37474 5.86448C8.38074 5.85063 8.38659 5.83703 8.39334 5.82435C8.39904 5.81354 8.40549 5.80338 8.41329 5.79428C8.47629 5.72033 8.539 5.64616 8.60185 5.572L8.60245 5.57119L8.6032 5.57042C8.80721 5.32932 9.01123 5.08814 9.22274 4.85342C9.54136 4.49937 9.95659 4.29819 10.4081 4.17256C10.7569 4.07552 11.1126 4.00887 11.4786 4.03268C11.4948 4.0332 11.511 4.03502 11.5315 4.03786C11.5399 4.03905 11.5492 4.04038 11.5594 4.04189L11.5602 4.04199L11.5608 4.04208C11.5785 4.04467 11.5992 4.04772 11.6247 4.05111Z" fill="#3F4443"/>
<path d="M6.6325 7.8658C6.33623 8.18352 6.05871 8.51806 5.80115 8.86762C5.84795 8.86732 5.88995 8.86807 5.92865 8.86882C6.00186 8.87032 6.06351 8.87152 6.12412 8.86416C6.53004 8.81233 6.93507 8.75195 7.32149 8.60924C7.61101 8.50213 7.88943 8.3788 8.13215 8.17706C8.50207 7.86896 8.78499 7.49416 9.04301 7.09563C9.05441 7.0776 9.06206 7.05687 9.07181 7.03088C9.07691 7.01721 9.08246 7.00219 9.08951 6.98522C9.07556 6.98372 9.06206 6.98221 9.04901 6.98071C9.03775 6.97936 9.02696 6.97801 9.01631 6.97681C8.96725 6.9708 8.92435 6.96539 8.8813 6.96644C8.52487 6.9735 8.17115 7.02908 7.82988 7.13183C7.36605 7.27093 6.96342 7.50708 6.6325 7.8658Z" fill="#3F4443"/>
<path d="M9.59424 2.20923C9.60339 2.91011 9.58974 3.56905 9.23512 4.16428C8.91575 4.70022 8.47652 5.12238 7.95133 5.49222C7.94818 5.48193 7.94488 5.47262 7.94158 5.4641C7.93963 5.45855 7.93753 5.45334 7.93558 5.44841C7.92688 5.426 7.92043 5.40951 7.92238 5.39404C7.93198 5.31457 7.94158 5.23509 7.95118 5.15561C7.99033 4.83178 8.02949 4.50786 8.07524 4.18486C8.14094 3.72598 8.36596 3.34106 8.66193 2.99276C8.92595 2.68092 9.24112 2.41596 9.59424 2.20923Z" fill="#3F4443"/>
<path d="M10.8223 2.04639C10.579 2.46855 10.4264 2.92609 10.313 3.4075C10.9867 3.12779 11.6013 2.77439 11.972 2.11809C12.1951 1.72265 12.353 1.1314 12.2935 0.963623C11.9397 1.0824 11.6103 1.26343 11.3209 1.49807C11.1279 1.65621 10.9479 1.82877 10.8223 2.04639Z" fill="#3F4443"/>
</svg>
