<svg width="14" height="17" viewBox="0 0 14 17" fill="none" xmlns="http://www.w3.org/2000/svg">
<path d="M0.888916 4.29395H13.3334V14.2939C13.3334 14.8244 13.1461 15.3331 12.8127 15.7082C12.4793 16.0832 12.0271 16.2939 11.5556 16.2939H2.66669C2.1952 16.2939 1.74301 16.0832 1.40962 15.7082C1.07622 15.3331 0.888916 14.8244 0.888916 14.2939V4.29395ZM7.11114 1.79395C6.52177 1.79395 5.95654 2.05734 5.53979 2.52618C5.12304 2.99502 4.88892 3.6309 4.88892 4.29395H4.00003C4.00003 3.36569 4.3278 2.47545 4.91125 1.81907C5.4947 1.16269 6.28602 0.793945 7.11114 0.793945C7.93626 0.793945 8.72758 1.16269 9.31103 1.81907C9.89447 2.47545 10.2222 3.36569 10.2222 4.29395H9.33336C9.33336 3.6309 9.09923 2.99502 8.68249 2.52618C8.26574 2.05734 7.70051 1.79395 7.11114 1.79395Z" fill="#3F4443"/>
</svg>
