<svg width="14" height="16" viewBox="0 0 14 16" fill="none" xmlns="http://www.w3.org/2000/svg">
<path d="M0.888916 4H13.3334V14C13.3334 14.5304 13.1461 15.0391 12.8127 15.4142C12.4793 15.7893 12.0271 16 11.5556 16H2.66669C2.1952 16 1.74301 15.7893 1.40962 15.4142C1.07622 15.0391 0.888916 14.5304 0.888916 14V4ZM7.11114 1.5C6.52177 1.5 5.95654 1.76339 5.53979 2.23223C5.12304 2.70107 4.88892 3.33696 4.88892 4H4.00003C4.00003 3.07174 4.3278 2.1815 4.91125 1.52513C5.4947 0.868749 6.28602 0.5 7.11114 0.5C7.93626 0.5 8.72758 0.868749 9.31103 1.52513C9.89447 2.1815 10.2222 3.07174 10.2222 4H9.33336C9.33336 3.33696 9.09923 2.70107 8.68249 2.23223C8.26574 1.76339 7.70051 1.5 7.11114 1.5Z" fill="#3F4443"/>
</svg>
