<svg width="23" height="23" viewBox="0 0 23 23" fill="none" xmlns="http://www.w3.org/2000/svg">
<path d="M5.65959 6.30336L6.57776 5.38519C6.65938 5.30357 6.74099 5.30357 6.82261 5.38519L17.5958 16.1584C17.6774 16.24 17.6774 16.3216 17.5958 16.4032L16.6776 17.3214C16.596 17.403 16.5144 17.403 16.4328 17.3214L5.65959 6.5482C5.57798 6.46659 5.57798 6.38497 5.65959 6.30336Z" fill="#3F4443"/>
<path d="M5.90447 15.9127L16.188 5.62922C16.2696 5.54761 16.3512 5.54761 16.4328 5.62922L17.351 6.54739C17.4326 6.62901 17.4326 6.71062 17.351 6.79224L7.06748 17.0757C6.98587 17.1574 6.90425 17.1574 6.82264 17.0757L5.90447 16.1576C5.82285 16.076 5.82285 15.9943 5.90447 15.9127Z" fill="#3F4443"/>
</svg>
