<svg width="22" height="23" viewBox="0 0 22 23" fill="none" xmlns="http://www.w3.org/2000/svg">
<path d="M4.80406 6.19569L5.72223 5.27752C5.80385 5.19591 5.88546 5.19591 5.96708 5.27752L16.7403 16.0507C16.8219 16.1323 16.8219 16.214 16.7403 16.2956L15.8221 17.2137C15.7405 17.2954 15.6589 17.2954 15.5773 17.2137L4.80406 6.44054C4.72245 6.35892 4.72245 6.27731 4.80406 6.19569Z" fill="#3F4443"/>
<path d="M5.04918 15.8043L15.3327 5.52082C15.4143 5.43921 15.4959 5.43921 15.5775 5.52082L16.4957 6.439C16.5773 6.52061 16.5773 6.60223 16.4957 6.68384L6.2122 16.9674C6.13058 17.049 6.04897 17.049 5.96735 16.9674L5.04918 16.0492C4.96757 15.9676 4.96757 15.886 5.04918 15.8043Z" fill="#3F4443"/>
</svg>
