<svg width="12" height="14" viewBox="0 0 12 14" fill="none" xmlns="http://www.w3.org/2000/svg">
<path d="M10.8613 11H10.4863V5.6875C10.4863 3.48281 8.85664 1.65938 6.73633 1.35625V0.75C6.73633 0.404687 6.45664 0.125 6.11133 0.125C5.76602 0.125 5.48633 0.404687 5.48633 0.75V1.35625C3.36602 1.65938 1.73633 3.48281 1.73633 5.6875V11H1.36133C1.08477 11 0.861328 11.2234 0.861328 11.5V12C0.861328 12.0688 0.917578 12.125 0.986328 12.125H4.36133C4.36133 13.0906 5.1457 13.875 6.11133 13.875C7.07695 13.875 7.86133 13.0906 7.86133 12.125H11.2363C11.3051 12.125 11.3613 12.0688 11.3613 12V11.5C11.3613 11.2234 11.1379 11 10.8613 11ZM6.11133 12.875C5.69727 12.875 5.36133 12.5391 5.36133 12.125H6.86133C6.86133 12.5391 6.52539 12.875 6.11133 12.875Z" fill="#3F4443"/>
</svg>
